<svg width="28" height="28" viewBox="0 0 28 28" fill="none" xmlns="http://www.w3.org/2000/svg">
<mask id="mask0_582_1026" style="mask-type:luminance" maskUnits="userSpaceOnUse" x="0" y="0" width="29" height="28">
<path d="M0.00170898 0H28.0031V28H0.00170898V0Z" fill="white"/>
</mask>
<g mask="url(#mask0_582_1026)">
<path fill-rule="evenodd" clip-rule="evenodd" d="M-4.375 0H32.375V28H-4.375V0Z" fill="#FAFAFA"/>
<path fill-rule="evenodd" clip-rule="evenodd" d="M-4.375 18.8015H32.375V28H-4.375V18.8015Z" fill="#DA0000"/>
<path fill-rule="evenodd" clip-rule="evenodd" d="M2.61401 19.1953H4.62378V19.3758H2.61401V19.1953ZM2.91343 20.1141H3.05288V20.2945H2.91343V20.1141ZM4.63198 20.1141V20.2945H4.23003V20.1086L4.63198 20.1141ZM4.84526 19.1953H4.98472V20.2891H4.84526V19.1953Z" fill="#FAFAFA"/>
<path fill-rule="evenodd" clip-rule="evenodd" d="M5.64919 20.1085V20.2945H4.8863V20.1085H5.64919ZM4.23005 19.6765H4.3613V20.2945H4.22595L4.23005 19.6765Z" fill="#FAFAFA"/>
<path fill-rule="evenodd" clip-rule="evenodd" d="M5.53433 19.1953H5.67378V20.2891H5.53433V19.1953ZM5.1898 19.1953H5.32515V20.2891H5.1898V19.1953ZM3.35229 19.6328V19.8187H2.61401V19.6328H3.35229ZM4.96421 19.6328V19.8187H4.22593V19.6328H4.96421Z" fill="#FAFAFA"/>
<path fill-rule="evenodd" clip-rule="evenodd" d="M4.23005 19.682H4.3613V20.289H4.22595L4.23005 19.682Z" fill="#FAFAFA"/>
<path fill-rule="evenodd" clip-rule="evenodd" d="M4.23005 19.682H4.3613V20.289H4.22595L4.23005 19.682Z" fill="#FAFAFA"/>
<path fill-rule="evenodd" clip-rule="evenodd" d="M4.2302 19.682H4.36145V20.289H4.2261L4.2302 19.682ZM2.61829 19.682H2.75364V20.289H2.61829V19.682ZM3.79954 19.682H3.93899V20.289H3.79954V19.682ZM3.21301 19.682H3.35247V20.289H3.21301V19.682Z" fill="#FAFAFA"/>
<path fill-rule="evenodd" clip-rule="evenodd" d="M3.89375 20.1086V20.2945H3.27441V20.1086H3.89375ZM3.93477 19.6328V19.8187H3.54102V19.6328H3.93477Z" fill="#FAFAFA"/>
<path fill-rule="evenodd" clip-rule="evenodd" d="M-0.691772 19.1953H1.31799V19.3758H-0.691772V19.1953ZM-0.392359 20.1141H-0.252905V20.2945H-0.39646L-0.392359 20.1141ZM1.3262 20.1141V20.2945H0.924243V20.1086L1.3262 20.1141ZM1.53948 19.1953H1.67893V20.2891H1.53948V19.1953Z" fill="#FAFAFA"/>
<path fill-rule="evenodd" clip-rule="evenodd" d="M2.34333 20.1085V20.2945H1.58044V20.1085H2.34333ZM0.924194 19.6765H1.05955V20.2945H0.924194V19.6765Z" fill="#FAFAFA"/>
<path fill-rule="evenodd" clip-rule="evenodd" d="M2.22854 19.1953H2.36799V20.2891H2.22854V19.1953ZM1.88401 19.1953H2.01936V20.2891H1.88401V19.1953ZM0.0465088 19.6328V19.8187H-0.691772V19.6328H0.0465088ZM1.65842 19.6328V19.8187H0.920141V19.6328H1.65842Z" fill="#FAFAFA"/>
<path fill-rule="evenodd" clip-rule="evenodd" d="M0.924194 19.682H1.05955V20.289H0.924194V19.682Z" fill="#FAFAFA"/>
<path fill-rule="evenodd" clip-rule="evenodd" d="M0.924194 19.682H1.05955V20.289H0.924194V19.682Z" fill="#FAFAFA"/>
<path fill-rule="evenodd" clip-rule="evenodd" d="M0.924414 19.682H1.05977V20.289H0.924414V19.682ZM-0.6875 19.682H-0.552149V20.289H-0.6875V19.682ZM0.49375 19.682H0.629102V20.289H0.49375V19.682ZM-0.0927734 19.682H0.0466798V20.289H-0.0927734V19.682Z" fill="#FAFAFA"/>
<path fill-rule="evenodd" clip-rule="evenodd" d="M0.587891 20.1086V20.2945H-0.0273438V20.1086H0.587891ZM0.628906 19.6328V19.8187H0.235156V19.6328H0.628906Z" fill="#FAFAFA"/>
<path fill-rule="evenodd" clip-rule="evenodd" d="M5.89124 19.1953H7.901V19.3758H5.89124V19.1953ZM6.19065 20.1141H6.3301V20.2945H6.19065V20.1141ZM7.9092 20.1141V20.2945H7.50725V20.1086L7.9092 20.1141ZM8.12659 19.1953H8.26604V20.2891H8.12659V19.1953Z" fill="#FAFAFA"/>
<path fill-rule="evenodd" clip-rule="evenodd" d="M8.92634 20.1085V20.2945H8.16345V20.1085H8.92634ZM7.5072 19.6765H7.64666V20.2945H7.5072V19.6765Z" fill="#FAFAFA"/>
<path fill-rule="evenodd" clip-rule="evenodd" d="M8.81155 19.1953H8.951V20.2891H8.81155V19.1953ZM8.46702 19.1953H8.60647V20.2891H8.46291L8.46702 19.1953ZM6.62952 19.6328V19.8187H5.89124V19.6328H6.62952ZM8.24143 19.6328V19.8187H7.50315V19.6328H8.24143Z" fill="#FAFAFA"/>
<path fill-rule="evenodd" clip-rule="evenodd" d="M7.5072 19.682H7.64666V20.289H7.5072V19.682Z" fill="#FAFAFA"/>
<path fill-rule="evenodd" clip-rule="evenodd" d="M7.5072 19.682H7.64666V20.289H7.5072V19.682Z" fill="#FAFAFA"/>
<path fill-rule="evenodd" clip-rule="evenodd" d="M7.50742 19.682H7.64687V20.289H7.50742V19.682ZM5.89551 19.682H6.03496V20.289H5.89551V19.682ZM7.07676 19.682H7.21621V20.289H7.07676V19.682ZM6.49023 19.682H6.62969V20.289H6.49023V19.682Z" fill="#FAFAFA"/>
<path fill-rule="evenodd" clip-rule="evenodd" d="M7.17507 20.1086V20.2945H6.55164V20.1086H7.17507ZM7.21609 19.6328V19.8187H6.82234V19.6328H7.21609Z" fill="#FAFAFA"/>
<path fill-rule="evenodd" clip-rule="evenodd" d="M9.18884 19.1953H11.2027V19.3758H9.19294L9.18884 19.1953ZM9.49236 20.1141H9.62771V20.2945H9.49236V20.1141ZM11.2068 20.1141V20.2945H10.8049V20.1086L11.2068 20.1141ZM11.4242 19.1953H11.5636V20.2891H11.4242V19.1953Z" fill="#FAFAFA"/>
<path fill-rule="evenodd" clip-rule="evenodd" d="M12.2281 20.1085V20.2945H11.4652V20.1085H12.2281ZM10.8048 19.6765H10.9443V20.2945H10.8048V19.6765Z" fill="#FAFAFA"/>
<path fill-rule="evenodd" clip-rule="evenodd" d="M12.1135 19.1953H12.253V20.2891H12.1135V19.1953ZM11.7649 19.1953H11.9044V20.2891H11.7649V19.1953ZM9.92742 19.6328V19.8187H9.19324V19.6328H9.92742ZM11.5393 19.6328V19.8187H10.8052V19.6328H11.5393Z" fill="#FAFAFA"/>
<path fill-rule="evenodd" clip-rule="evenodd" d="M10.8048 19.682H10.9443V20.289H10.8048V19.682Z" fill="#FAFAFA"/>
<path fill-rule="evenodd" clip-rule="evenodd" d="M10.8048 19.682H10.9443V20.289H10.8048V19.682Z" fill="#FAFAFA"/>
<path fill-rule="evenodd" clip-rule="evenodd" d="M10.805 19.682H10.9445V20.289H10.805V19.682ZM9.19312 19.682H9.33257V20.289H9.19312V19.682ZM10.3744 19.682H10.5138V20.289H10.3744V19.682ZM9.79194 19.682H9.92729V20.289H9.79194V19.682Z" fill="#FAFAFA"/>
<path fill-rule="evenodd" clip-rule="evenodd" d="M10.4726 20.1086V20.2945H9.85327V20.1086H10.4726ZM10.5136 19.6328V19.8187H10.1199V19.6328H10.5136Z" fill="#FAFAFA"/>
<path fill-rule="evenodd" clip-rule="evenodd" d="M12.5029 19.1953H14.5127V19.3758H12.5029V19.1953ZM12.8023 20.1141H12.9418V20.2945H12.8023V20.1141ZM14.5209 20.1141V20.2945H14.1189V20.1086L14.5209 20.1141ZM14.7383 19.1953H14.8736V20.2891H14.7383V19.1953Z" fill="#FAFAFA"/>
<path fill-rule="evenodd" clip-rule="evenodd" d="M15.538 20.1085V20.2945H14.7751V20.1085H15.538ZM14.1189 19.6765H14.2583V20.2945H14.1189V19.6765Z" fill="#FAFAFA"/>
<path fill-rule="evenodd" clip-rule="evenodd" d="M15.4232 19.1953H15.5627V20.2891H15.4232V19.1953ZM15.0787 19.1953H15.2182V20.2891H15.0787V19.1953ZM13.2412 19.6328V19.8187H12.5029V19.6328H13.2412ZM14.8531 19.6328V19.8187H14.1148V19.6328H14.8531Z" fill="#FAFAFA"/>
<path fill-rule="evenodd" clip-rule="evenodd" d="M14.1189 19.682H14.2583V20.289H14.1189V19.682Z" fill="#FAFAFA"/>
<path fill-rule="evenodd" clip-rule="evenodd" d="M14.1189 19.682H14.2583V20.289H14.1189V19.682Z" fill="#FAFAFA"/>
<path fill-rule="evenodd" clip-rule="evenodd" d="M14.1191 19.682H14.2586V20.289H14.1191V19.682ZM12.5072 19.682H12.6426V20.289H12.5072V19.682ZM13.6885 19.682H13.8279V20.289H13.6885V19.682ZM13.1019 19.682H13.2414V20.289H13.0978L13.1019 19.682Z" fill="#FAFAFA"/>
<path fill-rule="evenodd" clip-rule="evenodd" d="M13.7868 20.1086V20.2945H13.1633V20.1086H13.7868ZM13.8278 19.6328V19.8187H13.4258V19.6328H13.8278Z" fill="#FAFAFA"/>
<path fill-rule="evenodd" clip-rule="evenodd" d="M-4.375 0H32.375V9.19844H-4.375V0Z" fill="#239F40"/>
<path fill-rule="evenodd" clip-rule="evenodd" d="M15.8334 19.1953H17.8431V19.3758H15.8334V19.1953ZM16.1328 20.1141H16.2722V20.2945H16.1328V20.1141ZM17.8513 20.1141V20.2945H17.4453V20.1086L17.8513 20.1141ZM18.0687 19.1953H18.2041V20.2891H18.0687V19.1953Z" fill="#FAFAFA"/>
<path fill-rule="evenodd" clip-rule="evenodd" d="M18.8686 20.1085V20.2945H18.1057V20.1085H18.8686ZM17.4494 19.6765H17.5889V20.2945H17.4453L17.4494 19.6765Z" fill="#FAFAFA"/>
<path fill-rule="evenodd" clip-rule="evenodd" d="M18.7578 19.1953H18.8931V20.2891H18.7578V19.1953ZM18.4092 19.1953H18.5486V20.2891H18.4092V19.1953ZM16.5717 19.6328V19.8187H15.8334V19.6328H16.5717ZM18.1836 19.6328V19.8187H17.4453V19.6328H18.1836Z" fill="#FAFAFA"/>
<path fill-rule="evenodd" clip-rule="evenodd" d="M17.4453 19.682H17.5889V20.289H17.4453V19.682Z" fill="#FAFAFA"/>
<path fill-rule="evenodd" clip-rule="evenodd" d="M17.4453 19.682H17.5889V20.289H17.4453V19.682Z" fill="#FAFAFA"/>
<path fill-rule="evenodd" clip-rule="evenodd" d="M17.4455 19.682H17.589V20.289H17.4455V19.682ZM15.8376 19.682H15.9771V20.289H15.8376V19.682ZM17.0189 19.682H17.1583V20.289H17.0189V19.682ZM16.4324 19.682H16.5718V20.289H16.4324V19.682Z" fill="#FAFAFA"/>
<path fill-rule="evenodd" clip-rule="evenodd" d="M17.1172 20.1086V20.2945H16.4938V20.1086H17.1172ZM17.1582 19.6328V19.8187H16.7645V19.6328H17.1582Z" fill="#FAFAFA"/>
<path fill-rule="evenodd" clip-rule="evenodd" d="M19.1433 19.1953H21.1531V19.3758H19.1433V19.1953ZM19.4427 20.1141H19.5822V20.2945H19.4427V20.1141ZM21.1654 20.1141V20.2945H20.7593V20.1086L21.1654 20.1141ZM21.3787 19.1953H21.5181V20.2891H21.3787V19.1953Z" fill="#FAFAFA"/>
<path fill-rule="evenodd" clip-rule="evenodd" d="M22.1784 20.1085V20.2945H21.4155V20.1085H22.1784ZM20.7593 19.6765H20.8987V20.2945H20.7593V19.6765Z" fill="#FAFAFA"/>
<path fill-rule="evenodd" clip-rule="evenodd" d="M22.068 19.1953H22.2034V20.2891H22.068V19.1953ZM21.7194 19.1953H21.8588V20.2891H21.7194V19.1953ZM19.8819 19.6328V19.8187H19.1477V19.6328H19.8819ZM21.4938 19.6328V19.8187H20.7596V19.6328H21.4938Z" fill="#FAFAFA"/>
<path fill-rule="evenodd" clip-rule="evenodd" d="M20.7593 19.682H20.8987V20.289H20.7593V19.682Z" fill="#FAFAFA"/>
<path fill-rule="evenodd" clip-rule="evenodd" d="M20.7593 19.682H20.8987V20.289H20.7593V19.682Z" fill="#FAFAFA"/>
<path fill-rule="evenodd" clip-rule="evenodd" d="M20.7595 19.682H20.899V20.289H20.7595V19.682ZM19.1476 19.682H19.287V20.289H19.1476V19.682ZM20.3288 19.682H20.4683V20.289H20.3288V19.682ZM19.7423 19.682H19.8818V20.289H19.7464L19.7423 19.682Z" fill="#FAFAFA"/>
<path fill-rule="evenodd" clip-rule="evenodd" d="M20.4271 20.1086V20.2945H19.8077V20.1086H20.4271ZM20.4681 19.6328V19.8187H20.0702V19.6328H20.4681Z" fill="#FAFAFA"/>
<path fill-rule="evenodd" clip-rule="evenodd" d="M22.4574 19.1953H24.4672V19.3758H22.4574V19.1953ZM22.7568 20.1141H22.8963V20.2945H22.7568V20.1141ZM24.4754 20.1141V20.2945H24.0734V20.1086L24.4754 20.1141ZM24.6886 19.1953H24.8281V20.2891H24.6886V19.1953Z" fill="#FAFAFA"/>
<path fill-rule="evenodd" clip-rule="evenodd" d="M25.4926 20.1085V20.2945H24.7297V20.1085H25.4926ZM24.0693 19.6765H24.2088V20.2945H24.0693V19.6765Z" fill="#FAFAFA"/>
<path fill-rule="evenodd" clip-rule="evenodd" d="M25.3777 19.1953H25.5172V20.2891H25.3777V19.1953ZM25.0332 19.1953H25.1685V20.2891H25.0332V19.1953ZM23.1957 19.6328V19.8187H22.4574V19.6328H23.1957ZM24.8076 19.6328V19.8187H24.0693V19.6328H24.8076Z" fill="#FAFAFA"/>
<path fill-rule="evenodd" clip-rule="evenodd" d="M24.0734 19.682H24.2087V20.289H24.0734V19.682Z" fill="#FAFAFA"/>
<path fill-rule="evenodd" clip-rule="evenodd" d="M24.0734 19.682H24.2087V20.289H24.0734V19.682Z" fill="#FAFAFA"/>
<path fill-rule="evenodd" clip-rule="evenodd" d="M24.0734 19.682H24.2088V20.289H24.0734V19.682ZM22.4574 19.682H22.5969V20.289H22.4574V19.682ZM23.6427 19.682H23.7781V20.289H23.6427V19.682ZM23.0562 19.682H23.1957V20.289H23.0562V19.682Z" fill="#FAFAFA"/>
<path fill-rule="evenodd" clip-rule="evenodd" d="M23.7371 20.1086V20.2945H23.1178V20.1086H23.7371ZM23.7781 19.6328V19.8187H23.3844V19.6328H23.7781Z" fill="#FAFAFA"/>
<path fill-rule="evenodd" clip-rule="evenodd" d="M25.7878 19.1953H27.7976V19.3758H25.7878V19.1953ZM26.0873 20.1141H26.2267V20.2945H26.0873V20.1141ZM27.8058 20.1141V20.2945H27.4039V20.1086L27.8058 20.1141ZM28.0191 19.1953H28.1585V20.2891H28.0191V19.1953Z" fill="#FAFAFA"/>
<path fill-rule="evenodd" clip-rule="evenodd" d="M28.823 20.1085V20.2945H28.0601V20.1085H28.823ZM27.4038 19.6765H27.5392V20.2945H27.4038V19.6765Z" fill="#FAFAFA"/>
<path fill-rule="evenodd" clip-rule="evenodd" d="M28.7082 19.1953H28.8476V20.2891H28.7082V19.1953ZM28.3636 19.1953H28.499V20.2891H28.3636V19.1953ZM26.5261 19.6328V19.8187H25.7878V19.6328H26.5261ZM28.138 19.6328V19.8187H27.3998V19.6328H28.138Z" fill="#FAFAFA"/>
<path fill-rule="evenodd" clip-rule="evenodd" d="M27.4038 19.682H27.5392V20.289H27.4038V19.682Z" fill="#FAFAFA"/>
<path fill-rule="evenodd" clip-rule="evenodd" d="M27.4038 19.682H27.5392V20.289H27.4038V19.682Z" fill="#FAFAFA"/>
<path fill-rule="evenodd" clip-rule="evenodd" d="M27.404 19.682H27.5394V20.289H27.404V19.682ZM25.7921 19.682H25.9275V20.289H25.7921V19.682ZM26.9734 19.682H27.1128V20.289H26.9734V19.682ZM26.3868 19.682H26.5263V20.289H26.3868V19.682Z" fill="#FAFAFA"/>
<path fill-rule="evenodd" clip-rule="evenodd" d="M27.0676 20.1086V20.2945H26.4482V20.1086H27.0676ZM27.1086 19.6328V19.8187H26.7148V19.6328H27.1086Z" fill="#FAFAFA"/>
<path fill-rule="evenodd" clip-rule="evenodd" d="M2.61401 7.84216H4.62378V8.0281H2.61401V7.84216ZM2.91343 8.77185H3.05288V8.94685H2.91343V8.77185ZM4.63198 8.76091V8.94685H4.23003V8.76091H4.63198ZM4.84526 7.84216H4.98472V8.94685H4.84526V7.84216Z" fill="#FAFAFA"/>
<path fill-rule="evenodd" clip-rule="evenodd" d="M5.64919 8.76089V8.94683H4.8863V8.76089H5.64919ZM4.23005 8.32886H4.3613V8.94683H4.22595L4.23005 8.32886Z" fill="#FAFAFA"/>
<path fill-rule="evenodd" clip-rule="evenodd" d="M5.53433 7.84216H5.67378V8.94685H5.53433V7.84216ZM5.1898 7.84216H5.32515V8.94685H5.1898V7.84216ZM3.35229 8.27966V8.4656H2.61401V8.28513L3.35229 8.27966ZM4.96421 8.27966V8.4656H4.22593V8.28513L4.96421 8.27966Z" fill="#FAFAFA"/>
<path fill-rule="evenodd" clip-rule="evenodd" d="M4.23005 8.32886H4.3613V8.94683H4.22595L4.23005 8.32886Z" fill="#FAFAFA"/>
<path fill-rule="evenodd" clip-rule="evenodd" d="M4.23005 8.32886H4.3613V8.94683H4.22595L4.23005 8.32886Z" fill="#FAFAFA"/>
<path fill-rule="evenodd" clip-rule="evenodd" d="M4.2302 8.32886H4.36145V8.94683H4.2261L4.2302 8.32886ZM2.61829 8.32886H2.75364V8.94683H2.61829V8.32886ZM3.79954 8.32886H3.93899V8.94683H3.79954V8.32886ZM3.21301 8.32886H3.35247V8.94683H3.21301V8.32886Z" fill="#FAFAFA"/>
<path fill-rule="evenodd" clip-rule="evenodd" d="M3.89375 8.76094V8.94688H3.27441V8.76094H3.89375ZM3.93477 8.28516V8.46563H3.54102V8.28516H3.93477Z" fill="#FAFAFA"/>
<path fill-rule="evenodd" clip-rule="evenodd" d="M-0.691772 7.84216H1.31799V8.0281H-0.691772V7.84216ZM-0.392359 8.77185H-0.252905V8.94685H-0.39646L-0.392359 8.77185ZM1.3262 8.76091V8.94685H0.924243V8.76091H1.3262ZM1.53948 7.84216H1.67893V8.94685H1.53948V7.84216Z" fill="#FAFAFA"/>
<path fill-rule="evenodd" clip-rule="evenodd" d="M2.34333 8.76089V8.94683H1.58044V8.76089H2.34333ZM0.924194 8.32886H1.05955V8.94683H0.924194V8.32886Z" fill="#FAFAFA"/>
<path fill-rule="evenodd" clip-rule="evenodd" d="M2.22854 7.84216H2.36799V8.94685H2.22854V7.84216ZM1.88401 7.84216H2.01936V8.94685H1.88401V7.84216ZM0.0465088 8.27966V8.4656H-0.691772V8.28513L0.0465088 8.27966ZM1.65842 8.27966V8.4656H0.920141V8.28513L1.65842 8.27966Z" fill="#FAFAFA"/>
<path fill-rule="evenodd" clip-rule="evenodd" d="M0.924194 8.32886H1.05955V8.94683H0.924194V8.32886Z" fill="#FAFAFA"/>
<path fill-rule="evenodd" clip-rule="evenodd" d="M0.924194 8.32886H1.05955V8.94683H0.924194V8.32886Z" fill="#FAFAFA"/>
<path fill-rule="evenodd" clip-rule="evenodd" d="M0.924414 8.32886H1.05977V8.94683H0.924414V8.32886ZM-0.6875 8.32886H-0.552149V8.94683H-0.6875V8.32886ZM0.49375 8.32886H0.629102V8.94683H0.49375V8.32886ZM-0.0927734 8.32886H0.0466798V8.94683H-0.0927734V8.32886Z" fill="#FAFAFA"/>
<path fill-rule="evenodd" clip-rule="evenodd" d="M0.587891 8.76094V8.94688H-0.0273438V8.76094H0.587891ZM0.628906 8.28516V8.46563H0.235156V8.28516H0.628906Z" fill="#FAFAFA"/>
<path fill-rule="evenodd" clip-rule="evenodd" d="M5.89124 7.84216H7.901V8.0281H5.89124V7.84216ZM6.19065 8.77185H6.3301V8.94685H6.19065V8.77185ZM7.9092 8.76091V8.94685H7.50725V8.76091H7.9092ZM8.12659 7.84216H8.26604V8.94685H8.12659V7.84216Z" fill="#FAFAFA"/>
<path fill-rule="evenodd" clip-rule="evenodd" d="M8.92634 8.76089V8.94683H8.16345V8.76089H8.92634ZM7.5072 8.32886H7.64666V8.94683H7.5072V8.32886Z" fill="#FAFAFA"/>
<path fill-rule="evenodd" clip-rule="evenodd" d="M8.81155 7.84216H8.951V8.94685H8.81155V7.84216ZM8.46702 7.84216H8.60647V8.94685H8.46291L8.46702 7.84216ZM6.62952 8.27966V8.4656H5.89124V8.28513L6.62952 8.27966ZM8.24143 8.27966V8.4656H7.50315V8.28513L8.24143 8.27966Z" fill="#FAFAFA"/>
<path fill-rule="evenodd" clip-rule="evenodd" d="M7.5072 8.32886H7.64666V8.94683H7.5072V8.32886Z" fill="#FAFAFA"/>
<path fill-rule="evenodd" clip-rule="evenodd" d="M7.5072 8.32886H7.64666V8.94683H7.5072V8.32886Z" fill="#FAFAFA"/>
<path fill-rule="evenodd" clip-rule="evenodd" d="M7.50742 8.32886H7.64687V8.94683H7.50742V8.32886ZM5.89551 8.32886H6.03496V8.94683H5.89551V8.32886ZM7.07676 8.32886H7.21621V8.94683H7.07676V8.32886ZM6.49023 8.32886H6.62969V8.94683H6.49023V8.32886Z" fill="#FAFAFA"/>
<path fill-rule="evenodd" clip-rule="evenodd" d="M7.17507 8.76094V8.94688H6.55164V8.76094H7.17507ZM7.21609 8.28516V8.46563H6.82234V8.28516H7.21609Z" fill="#FAFAFA"/>
<path fill-rule="evenodd" clip-rule="evenodd" d="M9.18884 7.84216H11.2027V8.0281H9.19294L9.18884 7.84216ZM9.49236 8.77185H9.62771V8.94685H9.49236V8.77185ZM11.2068 8.76091V8.94685H10.8049V8.76091H11.2068ZM11.4242 7.84216H11.5636V8.94685H11.4242V7.84216Z" fill="#FAFAFA"/>
<path fill-rule="evenodd" clip-rule="evenodd" d="M12.2281 8.76089V8.94683H11.4652V8.76089H12.2281ZM10.8048 8.32886H10.9443V8.94683H10.8048V8.32886Z" fill="#FAFAFA"/>
<path fill-rule="evenodd" clip-rule="evenodd" d="M12.1135 7.84216H12.253V8.94685H12.1135V7.84216ZM11.7649 7.84216H11.9044V8.94685H11.7649V7.84216ZM9.92742 8.27966V8.4656H9.19324V8.28513L9.92742 8.27966ZM11.5393 8.27966V8.4656H10.8052V8.28513L11.5393 8.27966Z" fill="#FAFAFA"/>
<path fill-rule="evenodd" clip-rule="evenodd" d="M10.8048 8.32886H10.9443V8.94683H10.8048V8.32886Z" fill="#FAFAFA"/>
<path fill-rule="evenodd" clip-rule="evenodd" d="M10.8048 8.32886H10.9443V8.94683H10.8048V8.32886Z" fill="#FAFAFA"/>
<path fill-rule="evenodd" clip-rule="evenodd" d="M10.805 8.32886H10.9445V8.94683H10.805V8.32886ZM9.19312 8.32886H9.33257V8.94683H9.19312V8.32886ZM10.3744 8.32886H10.5138V8.94683H10.3744V8.32886ZM9.79194 8.32886H9.92729V8.94683H9.79194V8.32886Z" fill="#FAFAFA"/>
<path fill-rule="evenodd" clip-rule="evenodd" d="M10.4726 8.76094V8.94688H9.85327V8.76094H10.4726ZM10.5136 8.28516V8.46563H10.1199V8.28516H10.5136Z" fill="#FAFAFA"/>
<path fill-rule="evenodd" clip-rule="evenodd" d="M12.5029 7.84216H14.5127V8.0281H12.5029V7.84216ZM12.8023 8.77185H12.9418V8.94685H12.8023V8.77185ZM14.5209 8.76091V8.94685H14.1189V8.76091H14.5209ZM14.7383 7.84216H14.8736V8.94685H14.7383V7.84216Z" fill="#FAFAFA"/>
<path fill-rule="evenodd" clip-rule="evenodd" d="M15.538 8.76089V8.94683H14.7751V8.76089H15.538ZM14.1189 8.32886H14.2583V8.94683H14.1189V8.32886Z" fill="#FAFAFA"/>
<path fill-rule="evenodd" clip-rule="evenodd" d="M15.4232 7.84216H15.5627V8.94685H15.4232V7.84216ZM15.0787 7.84216H15.2182V8.94685H15.0787V7.84216ZM13.2412 8.27966V8.4656H12.5029V8.28513L13.2412 8.27966ZM14.8531 8.27966V8.4656H14.1148V8.28513L14.8531 8.27966Z" fill="#FAFAFA"/>
<path fill-rule="evenodd" clip-rule="evenodd" d="M14.1189 8.32886H14.2583V8.94683H14.1189V8.32886Z" fill="#FAFAFA"/>
<path fill-rule="evenodd" clip-rule="evenodd" d="M14.1189 8.32886H14.2583V8.94683H14.1189V8.32886Z" fill="#FAFAFA"/>
<path fill-rule="evenodd" clip-rule="evenodd" d="M14.1191 8.32886H14.2586V8.94683H14.1191V8.32886ZM12.5072 8.32886H12.6426V8.94683H12.5072V8.32886ZM13.6885 8.32886H13.8279V8.94683H13.6885V8.32886ZM13.1019 8.32886H13.2414V8.94683H13.0978L13.1019 8.32886Z" fill="#FAFAFA"/>
<path fill-rule="evenodd" clip-rule="evenodd" d="M13.7868 8.76094V8.94688H13.1633V8.76094H13.7868ZM13.8278 8.28516V8.46563H13.4258V8.28516H13.8278Z" fill="#FAFAFA"/>
<path fill-rule="evenodd" clip-rule="evenodd" d="M15.8334 7.84216H17.8431V8.0281H15.8334V7.84216ZM16.1328 8.77185H16.2722V8.94685H16.1328V8.77185ZM17.8513 8.76091V8.94685H17.4453V8.76091H17.8513ZM18.0687 7.84216H18.2041V8.94685H18.0687V7.84216Z" fill="#FAFAFA"/>
<path fill-rule="evenodd" clip-rule="evenodd" d="M18.8686 8.76089V8.94683H18.1057V8.76089H18.8686ZM17.4494 8.32886H17.5889V8.94683H17.4453L17.4494 8.32886Z" fill="#FAFAFA"/>
<path fill-rule="evenodd" clip-rule="evenodd" d="M18.7578 7.84216H18.8931V8.94685H18.7578V7.84216ZM18.4092 7.84216H18.5486V8.94685H18.4092V7.84216ZM16.5717 8.27966V8.4656H15.8334V8.28513L16.5717 8.27966ZM18.1836 8.27966V8.4656H17.4453V8.28513L18.1836 8.27966Z" fill="#FAFAFA"/>
<path fill-rule="evenodd" clip-rule="evenodd" d="M17.4453 8.32886H17.5889V8.94683H17.4453V8.32886Z" fill="#FAFAFA"/>
<path fill-rule="evenodd" clip-rule="evenodd" d="M17.4453 8.32886H17.5889V8.94683H17.4453V8.32886Z" fill="#FAFAFA"/>
<path fill-rule="evenodd" clip-rule="evenodd" d="M17.4455 8.32886H17.589V8.94683H17.4455V8.32886ZM15.8376 8.32886H15.9771V8.94683H15.8376V8.32886ZM17.0189 8.32886H17.1583V8.94683H17.0189V8.32886ZM16.4324 8.32886H16.5718V8.94683H16.4324V8.32886Z" fill="#FAFAFA"/>
<path fill-rule="evenodd" clip-rule="evenodd" d="M17.1172 8.76094V8.94688H16.4938V8.76094H17.1172ZM17.1582 8.28516V8.46563H16.7645V8.28516H17.1582Z" fill="#FAFAFA"/>
<path fill-rule="evenodd" clip-rule="evenodd" d="M19.1433 7.84216H21.1531V8.0281H19.1433V7.84216ZM19.4427 8.77185H19.5822V8.94685H19.4427V8.77185ZM21.1654 8.76091V8.94685H20.7593V8.76091H21.1654ZM21.3787 7.84216H21.5181V8.94685H21.3787V7.84216Z" fill="#FAFAFA"/>
<path fill-rule="evenodd" clip-rule="evenodd" d="M22.1784 8.76089V8.94683H21.4155V8.76089H22.1784ZM20.7593 8.32886H20.8987V8.94683H20.7593V8.32886Z" fill="#FAFAFA"/>
<path fill-rule="evenodd" clip-rule="evenodd" d="M22.068 7.84216H22.2034V8.94685H22.068V7.84216ZM21.7194 7.84216H21.8588V8.94685H21.7194V7.84216ZM19.8819 8.27966V8.4656H19.1477V8.28513L19.8819 8.27966ZM21.4938 8.27966V8.4656H20.7596V8.28513L21.4938 8.27966Z" fill="#FAFAFA"/>
<path fill-rule="evenodd" clip-rule="evenodd" d="M20.7593 8.32886H20.8987V8.94683H20.7593V8.32886Z" fill="#FAFAFA"/>
<path fill-rule="evenodd" clip-rule="evenodd" d="M20.7593 8.32886H20.8987V8.94683H20.7593V8.32886Z" fill="#FAFAFA"/>
<path fill-rule="evenodd" clip-rule="evenodd" d="M20.7595 8.32886H20.899V8.94683H20.7595V8.32886ZM19.1476 8.32886H19.287V8.94683H19.1476V8.32886ZM20.3288 8.32886H20.4683V8.94683H20.3288V8.32886ZM19.7423 8.32886H19.8818V8.94683H19.7464L19.7423 8.32886Z" fill="#FAFAFA"/>
<path fill-rule="evenodd" clip-rule="evenodd" d="M20.4271 8.76094V8.94688H19.8077V8.76094H20.4271ZM20.4681 8.28516V8.46563H20.0702V8.28516H20.4681Z" fill="#FAFAFA"/>
<path fill-rule="evenodd" clip-rule="evenodd" d="M22.4574 7.84216H24.4672V8.0281H22.4574V7.84216ZM22.7568 8.77185H22.8963V8.94685H22.7568V8.77185ZM24.4754 8.76091V8.94685H24.0734V8.76091H24.4754ZM24.6886 7.84216H24.8281V8.94685H24.6886V7.84216Z" fill="#FAFAFA"/>
<path fill-rule="evenodd" clip-rule="evenodd" d="M25.4926 8.76089V8.94683H24.7297V8.76089H25.4926ZM24.0693 8.32886H24.2088V8.94683H24.0693V8.32886Z" fill="#FAFAFA"/>
<path fill-rule="evenodd" clip-rule="evenodd" d="M25.3777 7.84216H25.5172V8.94685H25.3777V7.84216ZM25.0332 7.84216H25.1685V8.94685H25.0332V7.84216ZM23.1957 8.27966V8.4656H22.4574V8.28513L23.1957 8.27966ZM24.8076 8.27966V8.4656H24.0693V8.28513L24.8076 8.27966Z" fill="#FAFAFA"/>
<path fill-rule="evenodd" clip-rule="evenodd" d="M24.0734 8.32886H24.2087V8.94683H24.0734V8.32886Z" fill="#FAFAFA"/>
<path fill-rule="evenodd" clip-rule="evenodd" d="M24.0734 8.32886H24.2087V8.94683H24.0734V8.32886Z" fill="#FAFAFA"/>
<path fill-rule="evenodd" clip-rule="evenodd" d="M24.0734 8.32886H24.2088V8.94683H24.0734V8.32886ZM22.4574 8.32886H22.5969V8.94683H22.4574V8.32886ZM23.6427 8.32886H23.7781V8.94683H23.6427V8.32886ZM23.0562 8.32886H23.1957V8.94683H23.0562V8.32886Z" fill="#FAFAFA"/>
<path fill-rule="evenodd" clip-rule="evenodd" d="M23.7371 8.76094V8.94688H23.1178V8.76094H23.7371ZM23.7781 8.28516V8.46563H23.3844V8.28516H23.7781Z" fill="#FAFAFA"/>
<path fill-rule="evenodd" clip-rule="evenodd" d="M25.7878 7.84216H27.7976V8.0281H25.7878V7.84216ZM26.0873 8.77185H26.2267V8.94685H26.0873V8.77185ZM27.8058 8.76091V8.94685H27.4039V8.76091H27.8058ZM28.0191 7.84216H28.1585V8.94685H28.0191V7.84216Z" fill="#FAFAFA"/>
<path fill-rule="evenodd" clip-rule="evenodd" d="M28.823 8.76089V8.94683H28.0601V8.76089H28.823ZM27.4038 8.32886H27.5392V8.94683H27.4038V8.32886Z" fill="#FAFAFA"/>
<path fill-rule="evenodd" clip-rule="evenodd" d="M28.7082 7.84216H28.8476V8.94685H28.7082V7.84216ZM28.3636 7.84216H28.499V8.94685H28.3636V7.84216ZM26.5261 8.27966V8.4656H25.7878V8.28513L26.5261 8.27966ZM28.138 8.27966V8.4656H27.3998V8.28513L28.138 8.27966Z" fill="#FAFAFA"/>
<path fill-rule="evenodd" clip-rule="evenodd" d="M27.4038 8.32886H27.5392V8.94683H27.4038V8.32886Z" fill="#FAFAFA"/>
<path fill-rule="evenodd" clip-rule="evenodd" d="M27.4038 8.32886H27.5392V8.94683H27.4038V8.32886Z" fill="#FAFAFA"/>
<path fill-rule="evenodd" clip-rule="evenodd" d="M27.404 8.32886H27.5394V8.94683H27.404V8.32886ZM25.7921 8.32886H25.9275V8.94683H25.7921V8.32886ZM26.9734 8.32886H27.1128V8.94683H26.9734V8.32886ZM26.3868 8.32886H26.5263V8.94683H26.3868V8.32886Z" fill="#FAFAFA"/>
<path fill-rule="evenodd" clip-rule="evenodd" d="M27.0676 8.76094V8.94688H26.4482V8.76094H27.0676ZM27.1086 8.28516V8.46563H26.7148V8.28516H27.1086Z" fill="#FAFAFA"/>
<path fill-rule="evenodd" clip-rule="evenodd" d="M0.678125 18.5664H0.924219V19.1406H0.678125V18.5664ZM7.26113 18.5664H7.50723V19.1406H7.26113V18.5664ZM-4.375 18.5664H-4.12891V19.1406H-4.375V18.5664ZM-1.03223 18.5664H-0.786133V19.1406H-1.03223V18.5664ZM2.28594 18.5664H2.53203V19.1406H2.28594V18.5664ZM3.92656 18.5664H4.17266V19.1406H3.92656V18.5664ZM5.6041 18.5664H5.8502V19.1406H5.6041V18.5664ZM8.90176 18.5664H9.14785V19.1406H8.90176V18.5664ZM17.2279 18.5664H17.4781V19.1406H17.232L17.2279 18.5664ZM10.5793 18.5664H10.8254V19.1406H10.5793V18.5664ZM12.2199 18.5664H12.466V19.1406H12.2199V18.5664ZM13.8811 18.5664H14.1271V19.1406H13.8811V18.5664ZM15.5381 18.5664H15.7842V19.1406H15.5381V18.5664ZM28.7943 18.5664H29.0404V19.1406H28.7943V18.5664ZM18.8398 18.5664H19.0859V19.1406H18.8398V18.5664ZM20.5133 18.5664H20.7594V19.1406H20.5133V18.5664ZM22.2072 18.5664H22.4533V19.1406H22.2072V18.5664ZM23.7986 18.5664H24.0447V19.1406H23.7986V18.5664ZM25.4926 18.5664H25.7387V19.1406H25.4926V18.5664ZM27.1496 18.5664H27.3957V19.1406H27.1496V18.5664ZM32.0592 18.5664H32.3053V19.1406H32.0592V18.5664ZM30.4678 18.5664H30.7139V19.1406H30.4678V18.5664ZM-2.70977 18.5664H-2.46367V19.1406H-2.70977V18.5664Z" fill="#D90000"/>
<path fill-rule="evenodd" clip-rule="evenodd" d="M0.678125 8.89221H0.924219V9.46643H0.678125V8.89221ZM7.26113 8.89221H7.50723V9.46643H7.26113V8.89221ZM-4.375 8.89221H-4.12891V9.46643H-4.375V8.89221ZM-1.03223 8.89221H-0.786133V9.46643H-1.03223V8.89221ZM2.28594 8.89221H2.53203V9.46643H2.28594V8.89221ZM3.92656 8.89221H4.17266V9.46643H3.92656V8.89221ZM5.6041 8.89221H5.8502V9.46643H5.6041V8.89221ZM8.90176 8.89221H9.14785V9.46643H8.90176V8.89221ZM17.2279 8.89221H17.4781V9.46643H17.232L17.2279 8.89221ZM10.5793 8.89221H10.8254V9.46643H10.5793V8.89221ZM12.2199 8.89221H12.466V9.46643H12.2199V8.89221ZM13.8811 8.89221H14.1271V9.46643H13.8811V8.89221ZM15.5381 8.89221H15.7842V9.46643H15.5381V8.89221ZM28.7943 8.89221H29.0404V9.46643H28.7943V8.89221ZM18.8398 8.89221H19.0859V9.46643H18.8398V8.89221ZM20.5133 8.89221H20.7594V9.46643H20.5133V8.89221ZM22.2072 8.89221H22.4533V9.46643H22.2072V8.89221ZM23.7986 8.89221H24.0447V9.46643H23.7986V8.89221ZM25.4926 8.89221H25.7387V9.46643H25.4926V8.89221ZM27.1496 8.89221H27.3957V9.46643H27.1496V8.89221ZM32.0592 8.89221H32.3053V9.46643H32.0592V8.89221ZM30.4678 8.89221H30.7139V9.46643H30.4678V8.89221ZM-2.70977 8.89221H-2.46367V9.46643H-2.70977V8.89221Z" fill="#239E3F"/>
<path fill-rule="evenodd" clip-rule="evenodd" d="M14.9762 10.8008C15.3207 11.3695 16.3912 14.4977 14.3322 16.5539C13.3601 17.5273 13.9631 17.5711 13.9918 17.7352C15.5504 16.6359 16.0549 15.1375 16.0426 13.7977C16.0344 12.4633 15.5012 11.282 14.9762 10.8008Z" fill="#DA0000"/>
<path fill-rule="evenodd" clip-rule="evenodd" d="M15.1813 10.6531C15.5618 10.9618 15.8861 11.3795 16.1308 11.8758C16.3755 12.3721 16.5344 12.9348 16.596 13.523C16.6576 14.1112 16.6204 14.7104 16.4871 15.2771C16.3538 15.8438 16.1277 16.364 15.8252 16.8C16.9408 16.4718 18.3682 12.075 15.1813 10.6531ZM12.8188 10.6531C12.4385 10.9623 12.1145 11.3803 11.8703 11.8768C11.626 12.3734 11.4675 12.9361 11.4063 13.5243C11.345 14.1125 11.3826 14.7115 11.5162 15.278C11.6498 15.8445 11.8762 16.3644 12.1789 16.8C11.0592 16.4718 9.63594 12.075 12.8188 10.6531Z" fill="#DA0000"/>
<path fill-rule="evenodd" clip-rule="evenodd" d="M13.0238 10.8008C12.6792 11.3695 11.6087 14.4977 13.6677 16.5539C14.6357 17.5273 14.0369 17.5711 14.0082 17.7352C12.4496 16.6359 11.9451 15.1375 11.9574 13.7977C11.9656 12.4633 12.4988 11.282 13.0238 10.8008Z" fill="#DA0000"/>
<path fill-rule="evenodd" clip-rule="evenodd" d="M15.9769 17.4508C15.3658 17.4617 14.5988 17.3414 14.0287 16.9422C14.123 17.1883 14.201 17.3414 14.2953 17.582C14.8367 17.6531 15.5873 17.7351 15.9769 17.4508ZM12.0804 17.4508C12.6916 17.4617 13.4586 17.3414 14.0287 16.9422C13.9344 17.1883 13.8564 17.3414 13.7621 17.582C13.2207 17.6531 12.4701 17.7351 12.0804 17.4508ZM13.2002 9.8656C13.3232 10.3031 13.6472 10.3687 13.9918 10.1117C14.2461 10.3086 14.6357 10.325 14.7711 9.88748C14.8736 10.9703 14.0205 10.7078 13.9918 10.5C13.6719 10.9101 13.0812 10.675 13.2002 9.8656Z" fill="#DA0000"/>
<path fill-rule="evenodd" clip-rule="evenodd" d="M14.0164 18.1343L14.3363 17.6421L14.3814 11.0742L14 10.6257L13.6185 11.0523L13.6965 17.6695L14.0164 18.1343Z" fill="#DA0000"/>
</g>
</svg>
