<svg width="24" height="25" viewBox="0 0 24 25" fill="none" xmlns="http://www.w3.org/2000/svg">
<g id="vuesax/outline/messages-3">
<g id="vuesax/outline/messages-3_2">
<g id="messages-3">
<path id="Vector" d="M16.9 19.51C16.59 19.51 16.28 19.42 16.01 19.24L15.05 18.61C14.78 18.43 14.65 18.09 14.74 17.78C14.81 17.55 14.84 17.28 14.84 16.98V12.91C14.84 11.28 13.82 10.26 12.19 10.26H5.39999C5.27999 10.26 5.17 10.27 5.06 10.28C4.85 10.29 4.65001 10.22 4.49001 10.08C4.33001 9.94002 4.25 9.74003 4.25 9.53003V6.76001C4.25 3.82001 6.31 1.76001 9.25 1.76001H17.75C20.69 1.76001 22.75 3.82001 22.75 6.76001V11.86C22.75 13.31 22.26 14.59 21.36 15.47C20.64 16.2 19.64 16.67 18.5 16.81V17.92C18.5 18.52 18.17 19.06 17.65 19.34C17.41 19.45 17.15 19.51 16.9 19.51ZM16.3 17.63L16.95 18C17.01 17.97 17.01 17.92 17.01 17.91V16.1C17.01 15.69 17.35 15.35 17.76 15.35C18.81 15.35 19.7 15.02 20.31 14.4C20.94 13.78 21.26 12.9 21.26 11.85V6.75C21.26 4.62 19.89 3.25 17.76 3.25H9.25999C7.12999 3.25 5.75999 4.62 5.75999 6.75V8.75H12.2C14.64 8.75 16.35 10.46 16.35 12.9V16.97C16.34 17.2 16.33 17.42 16.3 17.63Z" fill="#FAFAFA"/>
<path id="Vector_2" d="M6.07001 23.25C5.85001 23.25 5.62 23.2 5.41 23.09C4.94 22.84 4.64999 22.36 4.64999 21.82V21.06C3.76999 20.92 2.99 20.55 2.41 19.97C1.65 19.21 1.25 18.17 1.25 16.97V12.9C1.25 10.64 2.72999 8.98002 4.92999 8.77002C5.08999 8.76002 5.23999 8.75 5.39999 8.75H12.19C14.63 8.75 16.34 10.46 16.34 12.9V16.97C16.34 17.41 16.29 17.82 16.18 18.19C15.73 19.99 14.2 21.12 12.19 21.12H9.7L6.87 23C6.63 23.17 6.35001 23.25 6.07001 23.25ZM5.39999 10.25C5.27999 10.25 5.17 10.26 5.06 10.27C3.62 10.4 2.75 11.39 2.75 12.9V16.97C2.75 17.77 3 18.44 3.47 18.91C3.93 19.37 4.59999 19.62 5.39999 19.62C5.80999 19.62 6.14999 19.96 6.14999 20.37V21.68L9.05 19.75C9.17 19.67 9.32 19.62 9.47 19.62H12.19C13.51 19.62 14.44 18.96 14.73 17.8C14.8 17.55 14.84 17.27 14.84 16.97V12.9C14.84 11.27 13.82 10.25 12.19 10.25H5.39999Z" fill="#FAFAFA"/>
</g>
</g>
</g>
</svg>
