<svg width="24" height="25" viewBox="0 0 24 25" fill="none" xmlns="http://www.w3.org/2000/svg">
<path d="M12.02 21.03C9.68999 21.03 7.35999 20.66 5.14999 19.92C4.30999 19.63 3.66999 19.04 3.38999 18.27C3.09999 17.5 3.19999 16.65 3.65999 15.89L4.80999 13.98C5.04999 13.58 5.26999 12.78 5.26999 12.31V9.42004C5.26999 5.70004 8.29999 2.67004 12.02 2.67004C15.74 2.67004 18.77 5.70004 18.77 9.42004V12.31C18.77 12.77 18.99 13.58 19.23 13.99L20.37 15.89C20.8 16.61 20.88 17.48 20.59 18.27C20.3 19.06 19.67 19.66 18.88 19.92C16.68 20.66 14.35 21.03 12.02 21.03ZM12.02 4.17004C9.12999 4.17004 6.76999 6.52004 6.76999 9.42004V12.31C6.76999 13.04 6.46999 14.12 6.09999 14.75L4.94999 16.66C4.72999 17.03 4.66999 17.42 4.79999 17.75C4.91999 18.09 5.21999 18.35 5.62999 18.49C9.80999 19.89 14.24 19.89 18.42 18.49C18.78 18.37 19.06 18.1 19.19 17.74C19.32 17.38 19.29 16.99 19.09 16.66L17.94 14.75C17.56 14.1 17.27 13.03 17.27 12.3V9.42004C17.27 6.52004 14.92 4.17004 12.02 4.17004Z" fill="#FAFAFA"/>
<path d="M13.88 4.44005C13.81 4.44005 13.74 4.43005 13.67 4.41005C13.38 4.33005 13.1 4.27005 12.83 4.23005C11.98 4.12005 11.16 4.18005 10.39 4.41005C10.11 4.50005 9.80999 4.41005 9.61999 4.20005C9.42999 3.99005 9.36999 3.69005 9.47999 3.42005C9.88999 2.37005 10.89 1.68005 12.03 1.68005C13.17 1.68005 14.17 2.36005 14.58 3.42005C14.68 3.69005 14.63 3.99005 14.44 4.20005C14.29 4.36005 14.08 4.44005 13.88 4.44005Z" fill="#FAFAFA"/>
<path d="M12.02 23.3101C11.03 23.3101 10.07 22.9101 9.37002 22.2101C8.67002 21.5101 8.27002 20.5501 8.27002 19.5601H9.77002C9.77002 20.1501 10.01 20.7301 10.43 21.1501C10.85 21.5701 11.43 21.8101 12.02 21.8101C13.26 21.8101 14.27 20.8001 14.27 19.5601H15.77C15.77 21.6301 14.09 23.3101 12.02 23.3101Z" fill="#FAFAFA"/>
</svg>
