<svg width="25" height="24" viewBox="0 0 25 24" fill="none" xmlns="http://www.w3.org/2000/svg">
<g id="vuesax/outline/sun">
<g id="vuesax/outline/sun_2">
<g id="sun">
<path id="Vector" d="M12.7732 19.25C8.77319 19.25 5.52319 16 5.52319 12C5.52319 8 8.77319 4.75 12.7732 4.75C16.7732 4.75 20.0232 8 20.0232 12C20.0232 16 16.7732 19.25 12.7732 19.25ZM12.7732 6.25C9.60319 6.25 7.02319 8.83 7.02319 12C7.02319 15.17 9.60319 17.75 12.7732 17.75C15.9432 17.75 18.5232 15.17 18.5232 12C18.5232 8.83 15.9432 6.25 12.7732 6.25Z" fill="#757575"/>
<path id="Vector_2" d="M12.7732 22.96C12.2232 22.96 11.7732 22.55 11.7732 22V21.92C11.7732 21.37 12.2232 20.92 12.7732 20.92C13.3232 20.92 13.7732 21.37 13.7732 21.92C13.7732 22.47 13.3232 22.96 12.7732 22.96ZM19.9132 20.14C19.6532 20.14 19.4032 20.04 19.2032 19.85L19.0732 19.72C18.6832 19.33 18.6832 18.7 19.0732 18.31C19.4632 17.92 20.0932 17.92 20.4832 18.31L20.6132 18.44C21.0032 18.83 21.0032 19.46 20.6132 19.85C20.4232 20.04 20.1732 20.14 19.9132 20.14ZM5.63319 20.14C5.37319 20.14 5.12319 20.04 4.92319 19.85C4.53319 19.46 4.53319 18.83 4.92319 18.44L5.05319 18.31C5.44319 17.92 6.07319 17.92 6.46319 18.31C6.85319 18.7 6.85319 19.33 6.46319 19.72L6.33319 19.85C6.14319 20.04 5.88319 20.14 5.63319 20.14ZM22.7732 13H22.6932C22.1432 13 21.6932 12.55 21.6932 12C21.6932 11.45 22.1432 11 22.6932 11C23.2432 11 23.7332 11.45 23.7332 12C23.7332 12.55 23.3232 13 22.7732 13ZM2.85319 13H2.77319C2.22319 13 1.77319 12.55 1.77319 12C1.77319 11.45 2.22319 11 2.77319 11C3.32319 11 3.81319 11.45 3.81319 12C3.81319 12.55 3.40319 13 2.85319 13ZM19.7832 5.99C19.5232 5.99 19.2732 5.89 19.0732 5.7C18.6832 5.31 18.6832 4.68 19.0732 4.29L19.2032 4.16C19.5932 3.77 20.2232 3.77 20.6132 4.16C21.0032 4.55 21.0032 5.18 20.6132 5.57L20.4832 5.7C20.2932 5.89 20.0432 5.99 19.7832 5.99ZM5.76319 5.99C5.50319 5.99 5.25319 5.89 5.05319 5.7L4.92319 5.56C4.53319 5.17 4.53319 4.54 4.92319 4.15C5.31319 3.76 5.94319 3.76 6.33319 4.15L6.46319 4.28C6.85319 4.67 6.85319 5.3 6.46319 5.69C6.27319 5.89 6.01319 5.99 5.76319 5.99ZM12.7732 3.04C12.2232 3.04 11.7732 2.63 11.7732 2.08V2C11.7732 1.45 12.2232 1 12.7732 1C13.3232 1 13.7732 1.45 13.7732 2C13.7732 2.55 13.3232 3.04 12.7732 3.04Z" fill="#757575"/>
</g>
</g>
</g>
</svg>
