<svg width="577" height="512" viewBox="0 0 577 512" fill="none" xmlns="http://www.w3.org/2000/svg">
<path d="M451.178 415.247C492.886 415.247 534.595 415.247 576.303 415.247C577.232 415.247 577.232 416.701 576.303 416.701C534.595 416.701 492.886 416.701 451.178 416.701C450.249 416.701 450.249 415.247 451.178 415.247Z" fill="#161616"/>
<path d="M301.751 407.976C266.937 407.976 232.171 407.976 197.357 407.976C187.48 407.976 177.603 407.976 167.726 407.976C166.797 407.976 166.797 406.522 167.726 406.522C202.54 406.522 237.306 406.522 272.12 406.522C281.997 406.522 291.874 406.522 301.751 406.522C302.68 406.522 302.68 407.976 301.751 407.976Z" fill="#161616"/>
<path d="M159.658 407.976C132.912 407.976 106.166 407.976 79.4196 407.976C78.4906 407.976 78.4906 406.522 79.4196 406.522C106.166 406.522 132.912 406.522 159.658 406.522C160.587 406.522 160.587 407.976 159.658 407.976Z" fill="#161616"/>
<path d="M67.6357 407.976C62.9906 407.976 58.2965 407.976 53.6514 407.976C52.7224 407.976 52.7224 406.522 53.6514 406.522C58.2965 406.522 62.9906 406.522 67.6357 406.522C68.5648 406.522 68.6137 407.976 67.6357 407.976Z" fill="#161616"/>
<path d="M133.499 406.328C133.499 390.041 133.499 373.705 133.499 357.418C133.499 356.497 134.966 356.497 134.966 357.418C134.966 373.705 134.966 390.041 134.966 406.328C134.966 407.249 133.499 407.249 133.499 406.328Z" fill="#E8E8E8"/>
<path d="M133.939 358.145C104.454 358.145 74.9212 358.145 45.4367 358.145C44.5077 358.145 44.5077 356.691 45.4367 356.691C74.9212 356.691 104.454 356.691 133.939 356.691C134.868 356.691 134.868 358.145 133.939 358.145Z" fill="#E8E8E8"/>
<path d="M45.8768 358.63C45.8768 374.141 45.8768 389.653 45.8768 405.165C45.8768 406.086 44.4099 406.086 44.4099 405.165C44.4099 389.653 44.4099 374.141 44.4099 358.63C44.4099 357.66 45.8768 357.66 45.8768 358.63Z" fill="#E8E8E8"/>
<path d="M125.724 363.041C125.724 374.674 125.724 386.357 125.724 397.99C125.724 398.911 124.257 398.911 124.257 397.99C124.257 386.357 124.257 374.674 124.257 363.041C124.257 362.12 125.724 362.12 125.724 363.041Z" fill="#E8E8E8"/>
<path d="M114.332 363.332C114.332 373.899 114.332 384.466 114.332 395.034C114.332 395.955 112.865 395.955 112.865 395.034C112.865 384.466 112.865 373.899 112.865 363.332C112.865 362.411 114.332 362.411 114.332 363.332Z" fill="#E8E8E8"/>
<path d="M101.765 362.459C101.765 372.93 101.765 383.4 101.765 393.87C101.765 394.791 100.298 394.791 100.298 393.87C100.298 383.4 100.298 372.93 100.298 362.459C100.298 361.538 101.765 361.538 101.765 362.459Z" fill="#E8E8E8"/>
<path d="M88.9055 364.544C88.9055 375.208 88.9055 385.872 88.9055 396.536C88.9055 397.457 87.4386 397.457 87.4386 396.536C87.4386 385.872 87.4386 375.208 87.4386 364.544C87.4386 363.623 88.9055 363.574 88.9055 364.544Z" fill="#E8E8E8"/>
<path d="M76.3881 365.125C76.3881 376.08 76.3881 387.035 76.3881 398.039C76.3881 398.96 74.9212 398.96 74.9212 398.039C74.9212 387.084 74.9212 376.129 74.9212 365.125C74.9212 364.204 76.3881 364.204 76.3881 365.125Z" fill="#E8E8E8"/>
<path d="M60.8392 365.416C60.8392 375.789 60.8392 386.163 60.8392 396.536C60.8392 397.457 59.3723 397.457 59.3723 396.536C59.3723 386.163 59.3723 375.789 59.3723 365.416C59.3723 364.495 60.8392 364.495 60.8392 365.416Z" fill="#E8E8E8"/>
<path d="M50.3752 366.919C50.3752 376.226 50.3752 385.484 50.3752 394.791C50.3752 395.712 48.9083 395.712 48.9083 394.791C48.9083 385.484 48.9083 376.226 48.9083 366.919C48.9083 365.949 50.3752 365.949 50.3752 366.919Z" fill="#E8E8E8"/>
<path d="M148.016 80.6537C110.317 80.6537 72.5695 80.6537 34.8705 80.6537C24.1622 80.6537 13.405 80.6537 2.69673 80.6537C1.7677 80.6537 1.7677 79.1995 2.69673 79.1995C40.3957 79.1995 78.1436 79.1995 115.843 79.1995C126.551 79.1995 137.308 79.1995 148.016 79.1995C148.994 79.1995 148.994 80.6537 148.016 80.6537Z" fill="#E8E8E8"/>
<path d="M147.283 79.4903C147.283 76.291 147.283 73.1402 147.283 69.941C147.283 69.02 148.75 69.02 148.75 69.941C148.75 73.1402 148.75 76.291 148.75 79.4903C148.75 80.4597 147.283 80.4597 147.283 79.4903Z" fill="#E8E8E8"/>
<path d="M148.016 71.1044C110.709 71.1044 73.4007 71.1044 36.1418 71.1044C25.4335 71.1044 14.7252 71.1044 4.01695 71.1044C3.08792 71.1044 3.08792 69.6501 4.01695 69.6501C41.3248 69.6501 78.6326 69.6501 115.892 69.6501C126.6 69.6501 137.308 69.6501 148.016 69.6501C148.994 69.6501 148.994 71.1044 148.016 71.1044Z" fill="#E8E8E8"/>
<path d="M4.3103 70.8136C4.3103 74.0128 4.3103 77.1636 4.3103 80.3628C4.3103 81.2838 2.84342 81.2838 2.84342 80.3628C2.84342 77.1636 2.84342 74.0128 2.84342 70.8136C2.84342 69.8926 4.3103 69.8926 4.3103 70.8136Z" fill="#E8E8E8"/>
<path d="M132.712 32.9559C132.272 36.2521 131.783 39.6452 132.272 42.9899C132.712 46.1892 134.13 49.0491 135.352 52.006C137.699 57.5804 138.922 63.3973 138.873 69.408C138.873 70.329 137.406 70.329 137.406 69.408C137.406 62.5247 135.646 56.4171 132.956 50.164C131.978 47.8857 131.098 45.559 130.756 43.0868C130.316 39.6937 130.756 36.349 131.196 32.9559C131.392 32.0349 132.859 32.0349 132.712 32.9559Z" fill="#E8E8E8"/>
<path d="M131.538 33.5861C129.925 32.8105 128.116 32.5197 126.306 32.9075C125.28 33.1498 125.084 33.7315 124.791 34.604C124.644 35.0403 124.595 35.2342 124.302 35.622C123.715 36.3491 122.688 35.3311 123.275 34.604C123.666 34.1193 123.275 33.1498 123.813 32.5682C124.351 31.8895 125.426 31.6472 126.209 31.5017C128.311 31.114 130.414 31.4533 132.321 32.3743C133.152 32.7136 132.418 33.9739 131.538 33.5861Z" fill="#E8E8E8"/>
<path d="M124.742 34.0223C125.182 39.8876 123.666 45.0743 120.928 50.2124C117.652 56.3686 117.114 62.7671 116.918 69.6503C116.869 70.5713 115.403 70.5713 115.451 69.6503C115.647 63.785 115.843 57.7258 118.287 52.2968C119.559 49.4369 121.27 46.8678 122.199 43.8624C123.226 40.6632 123.519 37.367 123.275 34.0223C123.177 33.1013 124.693 33.1013 124.742 34.0223Z" fill="#E8E8E8"/>
<path d="M101.565 69.2139C100.88 67.9051 101.516 66.4994 100.636 65.3845C99.2668 63.7364 94.915 63.7849 92.9592 63.591C88.6074 63.1547 84.3045 63.2032 79.9528 63.5425C75.601 63.8818 71.2492 64.4635 66.8486 64.6574C64.6971 64.7544 62.5457 64.7059 60.3943 64.6574C58.2428 64.6089 52.3264 65.2876 54.5756 68.9231C55.0646 69.6987 53.7933 70.4742 53.3043 69.6502C51.2996 66.4509 54.6245 63.591 57.705 63.2032C60.3943 62.8639 63.1813 63.3001 65.9195 63.2032C69.1956 63.1063 72.4716 62.7669 75.7477 62.4276C81.9575 61.8459 88.1184 61.5066 94.3282 62.2337C96.4797 62.4761 99.7068 62.4761 101.565 63.6879C103.423 64.8998 102.005 66.7418 102.836 68.3899C103.276 69.3109 102.005 70.0864 101.565 69.2139Z" fill="#E8E8E8"/>
<path d="M83.669 62.0883C83.2289 61.0219 83.4734 59.9555 83.1311 58.8891C82.251 56.1746 78.7794 56.9986 76.6768 56.9986C72.7651 56.9986 68.9023 56.9986 64.9906 57.0471C57.2161 57.0471 49.4416 57.0956 41.6182 57.0956C41.8627 56.9017 42.1072 56.7562 42.3028 56.5623C41.7649 59.0345 41.3249 61.5066 40.9826 64.0273C40.8848 64.9483 39.4179 64.9483 39.5157 64.0273C39.858 61.3612 40.298 58.7437 40.8848 56.1746C40.9337 55.8837 41.276 55.6413 41.5693 55.6413C50.9574 55.5929 60.3944 55.5929 69.7825 55.5444C72.0317 55.5444 74.3298 55.5444 76.579 55.5444C78.2904 55.5444 80.2463 55.2536 81.9576 55.6413C85.1359 56.3684 84.0113 59.4223 84.9403 61.7005C85.4293 62.5731 84.0113 62.9608 83.669 62.0883Z" fill="#E8E8E8"/>
<path d="M53.7932 65.8209C49.5392 66.0632 45.2852 65.9663 41.0801 65.4815C40.1511 65.3846 40.1511 63.9304 41.0801 64.0273C45.3341 64.5121 49.5392 64.609 53.7932 64.3667C54.7222 64.2697 54.7222 65.7239 53.7932 65.8209Z" fill="#E8E8E8"/>
<path d="M53.94 56.4655C52.9621 58.9862 52.522 61.6037 52.6198 64.3183C52.6687 65.2393 51.2018 65.2393 51.1529 64.3183C51.0552 61.4583 51.5441 58.7438 52.522 56.0778C52.8643 55.2052 54.2823 55.593 53.94 56.4655Z" fill="#E8E8E8"/>
<path d="M22.4508 25.4908C22.4508 29.5141 22.4508 33.5859 22.4508 37.6092C22.4508 41.4386 22.1574 45.4619 22.8909 49.2428C23.5754 52.8783 25.5313 55.8352 27.4871 58.889C29.5897 62.2822 31.4966 65.7723 33.2569 69.3593C33.6481 70.1834 32.3768 70.959 31.9856 70.0864C30.1275 66.257 28.0739 62.5246 25.7758 58.889C23.9177 55.9806 22.1574 53.0722 21.5218 49.6306C20.8861 46.1405 21.0328 42.5535 21.0328 39.0634C21.0328 34.5553 21.0328 29.9988 21.0328 25.4908C20.9839 24.5698 22.4508 24.5698 22.4508 25.4908Z" fill="#E8E8E8"/>
<path d="M21.2284 26.4118C18.8325 25.103 16.1432 25.1515 13.7962 26.5087C12.965 26.9935 12.2315 25.7332 13.0627 25.2484C15.8498 23.6003 19.1748 23.5519 21.9619 25.1515C22.7931 25.5877 22.0597 26.8481 21.2284 26.4118Z" fill="#E8E8E8"/>
<path d="M14.9697 25.9755C14.9697 30.4351 15.0186 34.9431 15.0186 39.4027C15.0186 42.9897 15.3609 46.7706 14.8719 50.3577C14.383 53.7508 12.5249 56.2714 10.5202 58.9375C8.02644 62.1852 6.26618 65.5784 5.38605 69.6017C5.19046 70.5227 3.77247 70.1349 3.96806 69.2139C4.6526 65.9661 5.9239 62.9123 7.78196 60.1493C9.8356 57.0955 12.6227 54.5264 13.3072 50.7455C14.0407 46.7706 13.5517 42.408 13.5517 38.4332C13.5517 34.2645 13.5028 30.0957 13.5028 25.927C13.5028 25.0545 14.9697 25.0545 14.9697 25.9755Z" fill="#E8E8E8"/>
<path d="M115.93 89.2413C115.93 107.467 115.93 125.742 115.93 143.968C115.93 144.889 114.464 144.889 114.464 143.968C114.464 125.742 114.464 107.467 114.464 89.2413C114.464 88.2718 115.93 88.2718 115.93 89.2413Z" fill="#E8E8E8"/>
<path d="M114.122 89.3866C88.6466 89.3866 63.1717 89.3866 37.6967 89.3866C36.7677 89.3866 36.7677 87.9324 37.6967 87.9324C63.1717 87.9324 88.6466 87.9324 114.122 87.9324C115.051 87.9324 115.051 89.3866 114.122 89.3866Z" fill="#E8E8E8"/>
<path d="M115.002 144.598C90.6513 144.598 66.301 144.598 41.9018 144.598C40.9728 144.598 40.9728 143.144 41.9018 143.144C66.2521 143.144 90.6024 143.144 115.002 143.144C115.98 143.144 115.98 144.598 115.002 144.598Z" fill="#E8E8E8"/>
<path d="M39.3102 89.6773C39.3102 107.758 39.3102 125.79 39.3102 143.871C39.3102 144.792 37.8433 144.792 37.8433 143.871C37.8433 125.79 37.8433 107.758 37.8433 89.6773C37.8433 88.7563 39.3102 88.7563 39.3102 89.6773Z" fill="#E8E8E8"/>
<path d="M42.3419 144.84C41.3639 144.84 40.3371 144.84 39.3592 144.84C38.4302 144.84 38.4302 143.386 39.3592 143.386C40.3371 143.386 41.3639 143.386 42.3419 143.386C43.2709 143.386 43.2709 144.84 42.3419 144.84Z" fill="#E8E8E8"/>
<path d="M109.232 105.722C88.0108 105.771 66.7409 105.819 45.52 105.868C44.5909 105.868 44.5909 104.413 45.52 104.413C66.7409 104.365 88.0108 104.317 109.232 104.268C110.161 104.268 110.161 105.722 109.232 105.722Z" fill="#E8E8E8"/>
<path d="M107.227 119.925C86.6906 119.876 66.2031 119.828 45.6666 119.779C44.7376 119.779 44.7376 118.325 45.6666 118.325C66.2031 118.374 86.6906 118.422 107.227 118.471C108.156 118.471 108.156 119.925 107.227 119.925Z" fill="#E8E8E8"/>
<path d="M106.054 134.079C85.6638 134.079 65.2741 134.079 44.8843 134.079C43.9553 134.079 43.9553 132.625 44.8843 132.625C65.2741 132.625 85.6638 132.625 106.054 132.625C106.983 132.625 106.983 134.079 106.054 134.079Z" fill="#E8E8E8"/>
<path d="M96.2254 105.189C96.2254 114.641 96.2254 124.094 96.2254 133.546C96.2254 134.467 94.7585 134.467 94.7585 133.546C94.7585 124.094 94.7585 114.641 94.7585 105.189C94.7585 104.268 96.2254 104.268 96.2254 105.189Z" fill="#E8E8E8"/>
<path d="M78.9651 105.625C78.9651 114.593 78.9651 123.609 78.9651 132.577C78.9651 133.498 77.4983 133.498 77.4983 132.577C77.4983 123.609 77.4983 114.593 77.4983 105.625C77.4983 104.656 78.9651 104.656 78.9651 105.625Z" fill="#E8E8E8"/>
<path d="M61.9003 104.995C61.9003 114.108 61.9003 123.221 61.9003 132.382C61.9003 133.303 60.4334 133.303 60.4334 132.382C60.4334 123.269 60.4334 114.156 60.4334 104.995C60.4334 104.074 61.9003 104.074 61.9003 104.995Z" fill="#E8E8E8"/>
<path d="M46.4002 105.431C46.4002 114.544 46.4002 123.657 46.4002 132.819C46.4002 133.74 44.9333 133.74 44.9333 132.819C44.9333 123.706 44.9333 114.593 44.9333 105.431C44.9333 104.462 46.4002 104.462 46.4002 105.431Z" fill="#E8E8E8"/>
<path d="M103.658 122.106C105.565 123.657 107.569 126.129 106.2 128.698C105.711 129.619 104.88 130.347 103.804 130.492C102.435 130.686 101.36 129.765 100.431 128.892C99.746 128.262 100.773 127.196 101.457 127.874C102.191 128.553 103.022 129.377 104.049 128.892C104.782 128.553 105.173 127.681 105.173 126.905C105.173 125.354 103.755 124.094 102.631 123.173C101.897 122.542 102.924 121.524 103.658 122.106Z" fill="#E8E8E8"/>
<path d="M86.9352 127.875C88.7443 127.051 89.1355 124.53 87.1308 123.609C85.9084 123.076 85.4683 124.53 85.3216 125.451C85.1749 126.226 85.5661 128.214 86.8374 127.39C87.6197 126.905 88.3532 128.165 87.5708 128.65C86.2017 129.523 84.4904 128.602 83.9525 127.196C83.5613 126.081 83.9036 124.918 84.2948 123.851C84.5882 123.027 84.9304 122.3 85.8106 122.009C87.5219 121.525 89.3311 123.027 89.8201 124.578C90.4068 126.372 89.38 128.311 87.7175 129.086C86.8374 129.523 86.1039 128.262 86.9352 127.875Z" fill="#E8E8E8"/>
<path d="M100.382 121.961C100.48 121.815 100.48 121.621 100.284 121.573C100.431 121.476 100.577 121.428 100.724 121.331C100.528 121.864 100.871 122.446 100.871 123.027C100.871 123.415 100.675 123.803 100.333 124.045C99.5994 124.578 98.6215 124.288 98.2303 123.512C98.0347 123.076 98.6704 122.736 98.8659 123.124C99.2571 123.9 100.235 123.56 100.137 122.736C100.088 122.203 99.8439 121.718 100.039 121.137C100.088 120.943 100.284 120.797 100.48 120.894C101.066 121.088 101.409 121.815 101.017 122.349C100.773 122.736 100.137 122.349 100.382 121.961Z" fill="#E8E8E8"/>
<path d="M83.3168 121.671C82.8278 121.574 82.3878 121.428 81.8988 121.331C81.4587 121.234 81.6543 120.506 82.0944 120.652C82.5834 120.749 83.0234 120.895 83.5124 120.992C83.9524 121.089 83.7569 121.816 83.3168 121.671Z" fill="#E8E8E8"/>
<path d="M83.5615 121.67C83.4637 121.912 83.4148 122.203 83.317 122.446C83.2681 122.591 83.1214 122.736 82.9747 122.736C82.7302 122.688 82.3879 122.639 82.1924 122.736C82.0946 122.785 81.9968 122.882 81.9968 122.979C81.9968 123.076 82.0946 122.979 82.0457 123.027C82.339 122.688 82.8769 123.173 82.5835 123.56C82.1435 124.045 81.2633 123.657 81.2633 123.027C81.2633 122.106 82.2901 121.961 82.9747 122.058C82.8769 122.155 82.7302 122.252 82.6324 122.349C82.7302 122.106 82.7791 121.815 82.8769 121.573C82.9747 120.991 83.6592 121.185 83.5615 121.67Z" fill="#E8E8E8"/>
<path d="M90.309 108.582C90.1134 110.569 90.1134 112.508 90.3579 114.496C90.4068 114.981 89.6733 114.981 89.6244 114.496C89.4289 112.508 89.38 110.569 89.5756 108.582C89.6244 108.097 90.3579 108.097 90.309 108.582Z" fill="#E8E8E8"/>
<path d="M89.5756 111.975C88.1087 111.83 87.1307 110.569 87.4241 109.115C87.5219 108.679 88.1087 108.824 88.1576 109.212C88.3532 111.006 88.402 112.848 88.3043 114.641C88.3043 115.126 87.5708 115.126 87.5708 114.641C87.6686 112.799 87.6197 111.006 87.4241 109.212C87.6686 109.261 87.9131 109.261 88.1576 109.309C87.962 110.279 88.6465 111.151 89.6245 111.248C90.0156 111.297 90.0156 112.024 89.5756 111.975Z" fill="#E8E8E8"/>
<path d="M85.4194 108.049C85.3705 107.952 85.3705 107.903 85.3216 107.807C85.4194 107.855 85.5661 107.855 85.6639 107.903C85.3705 108 85.3216 108.485 85.5661 108.679C85.8106 108.824 85.8106 109.261 85.4683 109.358C85.1749 109.406 84.9305 109.455 84.6371 109.503C84.686 109.309 84.7838 109.164 84.8327 108.97C85.0283 109.309 85.2727 109.6 85.615 109.745C86.0551 109.939 85.8595 110.618 85.4194 110.424C84.8816 110.182 84.4415 109.842 84.197 109.309C84.0992 109.115 84.1481 108.824 84.3926 108.776C84.686 108.728 84.9305 108.679 85.2238 108.631C85.1749 108.873 85.1749 109.067 85.126 109.309C84.2948 108.776 84.4904 107.516 85.4194 107.225C85.5172 107.176 85.6639 107.225 85.7617 107.322C86.0551 107.613 86.104 107.903 86.0551 108.243C86.0551 108.728 85.3705 108.534 85.4194 108.049Z" fill="#E8E8E8"/>
<path d="M68.9901 109.358C71.2394 107.806 74.5643 111.49 73.3419 113.672C72.804 114.641 71.5327 115.126 70.5059 114.641C69.528 114.205 69.1368 112.848 70.2614 112.314C70.3103 112.557 70.3103 112.751 70.3592 112.993C69.8214 112.896 69.2835 112.799 68.7457 112.702C68.3056 112.605 68.5012 111.927 68.9412 112.024C69.4791 112.121 70.017 112.218 70.5548 112.314C70.8482 112.363 70.946 112.848 70.6526 112.993C70.4081 113.672 70.5548 114.06 71.0438 114.108C71.2394 114.205 71.4838 114.205 71.6794 114.156C71.9239 114.108 72.2173 113.963 72.364 113.817C73.0485 113.187 72.9018 112.218 72.4618 111.539C71.875 110.569 70.5059 109.309 69.3324 110.085C68.9901 110.23 68.599 109.6 68.9901 109.358Z" fill="#E8E8E8"/>
<path d="M66.8877 109.358C66.7899 110.085 66.6921 110.86 66.5944 111.587C66.5455 111.975 66.4477 112.363 66.4477 112.702C66.4477 112.945 66.4966 113.139 66.4966 113.381C66.6433 114.06 67.0833 114.108 67.6701 113.623C67.6212 113.187 68.3057 112.945 68.3546 113.429C68.5013 114.544 67.3278 115.271 66.3988 114.593C65.8609 114.205 65.6653 113.575 65.6164 112.945C65.5675 111.781 65.8609 110.521 66.0076 109.358C66.2032 108.873 66.9366 108.873 66.8877 109.358Z" fill="#E8E8E8"/>
<path d="M67.7678 108.873C66.9366 109.067 66.1542 109.164 65.2741 109.116C64.7851 109.067 64.7851 108.34 65.2741 108.388C66.0564 108.437 66.7899 108.388 67.5722 108.194C68.0612 108.049 68.2568 108.776 67.7678 108.873Z" fill="#E8E8E8"/>
<path d="M75.0535 123.415C74.8579 124.966 74.8579 126.469 75.0535 128.02C75.1024 128.505 74.3689 128.456 74.32 128.02C74.1244 126.42 74.1244 124.821 74.3689 123.221C74.4178 122.785 75.1024 122.979 75.0535 123.415Z" fill="#E8E8E8"/>
<path d="M74.5155 126.76C72.7064 127.341 72.1685 125.257 72.1685 123.948C72.1685 123.463 72.8531 123.512 72.902 123.948C73.0487 125.548 73.1464 127.196 73.1953 128.844C73.1953 129.329 72.4619 129.329 72.4619 128.844C72.413 127.196 72.3152 125.596 72.1685 123.948C72.413 123.948 72.6575 123.948 72.902 123.948C72.902 124.772 72.9998 126.469 74.32 126.081C74.8089 125.936 75.0045 126.663 74.5155 126.76Z" fill="#E8E8E8"/>
<path d="M71.6796 127.584C71.6307 128.068 71.5818 128.553 71.6307 128.989C71.6307 129.183 71.4351 129.329 71.2395 129.377C70.995 129.377 70.7017 129.426 70.4572 129.426C69.9682 129.426 69.9682 128.699 70.4572 128.699C70.7017 128.699 70.995 128.65 71.2395 128.65C71.0928 128.796 70.995 128.892 70.8484 129.038C70.8484 128.553 70.8484 128.068 70.8973 127.632C70.9461 127.438 71.0439 127.293 71.2884 127.244C71.5329 127.244 71.7285 127.39 71.6796 127.584Z" fill="#E8E8E8"/>
<path d="M67.3278 128.408C67.8168 127.729 68.0613 126.954 68.1102 126.081C68.1102 125.548 68.0613 124.239 67.5723 123.851C66.5455 122.979 66.1054 125.451 66.0565 126.033C66.0076 126.469 66.0076 126.954 66.1054 127.39C66.1543 127.729 66.6433 129.329 67.4256 128.311C67.719 127.923 68.208 128.456 67.9635 128.844C67.1812 129.814 65.9587 129.135 65.5676 128.214C65.0297 126.808 65.2253 124.627 66.1054 123.415C66.9856 122.203 68.0124 122.93 68.4525 124.045C69.0881 125.596 68.8436 127.39 67.9146 128.747C67.719 129.183 67.0834 128.796 67.3278 128.408Z" fill="#E8E8E8"/>
<path d="M54.5169 110.085C55.2992 109.455 56.3261 109.455 57.1573 109.988C58.1841 110.667 58.4775 111.975 58.5753 113.09C58.6242 114.157 58.3308 115.223 57.1084 115.368C55.886 115.514 55.0548 114.544 54.3702 113.623C54.0768 113.236 54.7125 112.896 55.0059 113.236C55.4459 113.817 55.9838 114.544 56.815 114.593C57.8907 114.641 57.8907 113.478 57.8418 112.751C57.744 111.588 56.6194 109.309 55.1036 110.521C54.7125 110.909 54.1746 110.376 54.5169 110.085Z" fill="#E8E8E8"/>
<path d="M52.0721 113.672C52.3655 113.284 52.61 112.848 52.7078 112.363C52.8056 111.975 52.9523 111.103 52.7078 110.763C52.4633 110.667 52.2188 110.521 51.9744 110.424C51.7788 110.57 51.6321 110.812 51.5343 111.054C51.4365 111.248 51.3876 111.491 51.3387 111.684C51.2898 111.975 51.192 112.266 51.2409 112.557C51.2898 112.896 51.681 113.623 52.1699 113.139C52.5122 112.799 53.0012 113.333 52.7078 113.672C52.0721 114.302 51.0453 114.011 50.6542 113.236C50.2141 112.315 50.6542 110.715 51.3387 110.036C52.121 109.309 53.099 109.697 53.3923 110.667C53.7346 111.878 53.3923 113.139 52.6589 114.108C52.4144 114.399 51.7788 114.06 52.0721 113.672Z" fill="#E8E8E8"/>
<path d="M50.703 108.437C50.703 108.485 50.703 108.485 50.703 108.437C50.6542 108.437 50.5564 108.388 50.4586 108.388C50.5564 108.388 50.4586 109.067 50.4097 109.212C50.3608 109.309 50.3119 109.406 50.263 109.503C50.1163 109.697 49.9207 109.794 49.6762 109.842C49.2362 109.939 48.7472 109.745 48.5516 109.309C48.356 108.873 48.9917 108.534 49.1873 108.921C49.2851 109.164 49.6273 109.164 49.7251 108.921C49.8718 108.534 49.8718 108.146 50.4097 108.049C50.8008 108 51.0942 108.34 50.9964 108.679C50.8986 109.018 50.4586 109.164 50.1652 108.921C49.8229 108.631 50.3608 108.146 50.703 108.437Z" fill="#E8E8E8"/>
<path d="M106.591 108.921C106.836 111.442 106.885 114.011 106.738 116.532C106.738 117.016 106.005 117.016 106.005 116.532C106.102 114.011 106.054 111.442 105.858 108.921C105.858 108.437 106.591 108.437 106.591 108.921Z" fill="#E8E8E8"/>
<path d="M105.956 110.473C104.978 110.376 104.489 110.666 104.538 111.297C104.538 111.587 104.538 111.83 104.635 112.121C104.782 112.799 105.076 113.381 105.809 113.672C106.102 113.769 106.2 114.302 105.809 114.35C104.391 114.641 103.217 115.32 102.386 116.483C102.093 116.871 101.457 116.483 101.751 116.096C102.729 114.787 104 113.963 105.613 113.623C105.613 113.866 105.613 114.108 105.613 114.302C103.853 113.623 103.022 110.618 104.538 109.261C105.809 108.146 107.765 109.649 106.494 110.909C106.151 111.297 105.613 110.812 105.956 110.473Z" fill="#E8E8E8"/>
<path d="M100.724 115.126C100.773 115.32 100.724 115.659 100.675 115.902C100.626 116.193 100.528 116.435 100.284 116.58C99.8438 116.92 99.2571 116.677 98.7681 116.483C98.328 116.289 98.7192 115.659 99.1593 115.853C99.306 115.95 99.5015 116.047 99.6971 116.047C99.9416 116.047 99.9416 115.853 99.9416 115.611C99.9416 115.272 99.9905 114.932 100.186 114.641C100.528 114.254 101.311 114.351 101.408 114.884C101.506 115.368 100.822 115.562 100.724 115.126Z" fill="#E8E8E8"/>
<path d="M58.5753 123.463C58.5264 125.742 58.5264 128.02 58.6731 130.25C58.722 130.637 58.0375 130.734 57.9397 130.347C57.8908 130.153 57.8419 129.959 57.793 129.813C57.6952 129.377 58.3797 129.183 58.4775 129.62C58.5264 129.813 58.5753 130.007 58.6242 130.153C58.3797 130.201 58.1352 130.201 57.8908 130.25C57.7441 127.971 57.6952 125.693 57.793 123.463C57.8908 122.979 58.6242 122.979 58.5753 123.463Z" fill="#E8E8E8"/>
<path d="M58.5753 123.706C58.1842 125.645 57.5974 127.535 56.8151 129.377C56.6684 129.765 56.1305 129.717 56.0816 129.28C55.7882 127.148 55.5438 125.063 55.2504 122.93C55.2015 122.446 55.9349 122.494 55.9838 122.93C56.2772 125.063 56.5217 127.148 56.8151 129.28C56.5706 129.232 56.3261 129.232 56.0816 129.183C56.864 127.341 57.4507 125.451 57.8419 123.512C57.9886 123.027 58.6731 123.221 58.5753 123.706Z" fill="#E8E8E8"/>
<path d="M53.9791 129.135C54.1747 128.795 54.4192 128.359 54.3703 127.971C54.3214 127.778 54.0769 127.39 53.8324 127.535C53.588 127.632 53.6368 128.359 53.6857 128.602C53.7346 128.844 54.028 129.329 54.3214 128.989C54.6148 128.65 55.1526 129.135 54.8593 129.523C54.4192 130.007 53.588 129.862 53.1968 129.329C52.8056 128.747 52.7567 127.584 53.2457 127.05C53.6857 126.566 54.4681 126.808 54.8104 127.244C55.3971 127.923 54.957 128.844 54.6148 129.523C54.3703 129.91 53.7346 129.523 53.9791 129.135Z" fill="#E8E8E8"/>
<path d="M52.0233 122.93C51.73 125.257 51.6322 127.535 51.7789 129.862C51.8277 130.347 51.0943 130.347 51.0454 129.862C50.8987 127.535 50.9965 125.257 51.2899 122.93C51.3877 122.494 52.1211 122.494 52.0233 122.93Z" fill="#E8E8E8"/>
<path d="M51.1921 124.384C51.241 123.997 51.2899 123.463 50.8009 123.366C50.312 123.269 50.0675 123.851 50.0186 124.239C49.9208 125.015 50.4097 125.79 51.0454 126.226C51.4366 126.469 51.0943 127.099 50.6542 126.857C49.4318 126.081 48.6495 124.239 49.7741 123.027C50.1653 122.591 50.8498 122.397 51.3388 122.736C51.9255 123.124 51.9255 123.9 51.8277 124.53C51.8277 125.015 51.0943 124.821 51.1921 124.384Z" fill="#E8E8E8"/>
<path d="M49.5294 121.282C49.7739 121.815 49.5783 122.445 49.1872 122.833C48.796 123.173 48.0137 123.318 47.7203 122.736C47.5247 122.3 48.1603 121.961 48.3559 122.348C48.4048 122.445 48.307 122.397 48.3559 122.397C48.4048 122.397 48.4537 122.397 48.5026 122.397C48.6004 122.348 48.6982 122.252 48.7471 122.155C48.8938 121.912 48.8938 121.67 48.796 121.427C48.6982 121.234 48.8938 121.04 49.0405 120.991C49.285 120.991 49.4316 121.137 49.5294 121.282Z" fill="#E8E8E8"/>
<path d="M109.721 104.995C109.721 114.399 109.721 123.754 109.721 133.158C109.721 134.079 108.254 134.079 108.254 133.158C108.254 123.754 108.254 114.399 108.254 104.995C108.254 104.074 109.721 104.074 109.721 104.995Z" fill="#E8E8E8"/>
<path d="M108.792 134.079C87.5709 134.079 66.3499 134.079 45.1289 134.079C44.1999 134.079 44.1999 132.625 45.1289 132.625C66.3499 132.625 87.5709 132.625 108.792 132.625C109.721 132.625 109.721 134.079 108.792 134.079Z" fill="#E8E8E8"/>
<path d="M572.832 302.401C572.832 315.149 572.832 327.849 572.832 340.598C572.832 341.519 571.365 341.519 571.365 340.598C571.365 327.849 571.365 315.149 571.365 302.401C571.365 301.48 572.832 301.48 572.832 302.401Z" fill="#E8E8E8"/>
<path d="M570.484 303.128C545.499 303.128 520.513 303.128 495.575 303.128C494.646 303.128 494.646 301.674 495.575 301.674C520.561 301.674 545.547 301.674 570.484 301.674C571.462 301.674 571.462 303.128 570.484 303.128Z" fill="#E8E8E8"/>
<path d="M570.484 341.858C546.721 341.858 523.006 341.858 499.243 341.858C498.314 341.858 498.314 340.404 499.243 340.404C523.006 340.404 546.721 340.404 570.484 340.404C571.462 340.404 571.462 341.858 570.484 341.858Z" fill="#E8E8E8"/>
<path d="M496.847 303.467C496.847 315.149 496.847 326.831 496.847 338.513C496.847 339.434 495.38 339.434 495.38 338.513C495.38 326.831 495.38 315.149 495.38 303.467C495.38 302.546 496.847 302.546 496.847 303.467Z" fill="#E8E8E8"/>
<path d="M537.969 282.526C537.969 286.55 537.969 290.525 537.969 294.548C537.969 295.469 536.502 295.469 536.502 294.548C536.502 290.525 536.502 286.55 536.502 282.526C536.502 281.605 537.969 281.605 537.969 282.526Z" fill="#E8E8E8"/>
<path d="M536.746 283.254C520.561 283.254 504.377 283.254 488.192 283.254C487.263 283.254 487.263 281.799 488.192 281.799C504.377 281.799 520.561 281.799 536.746 281.799C537.675 281.799 537.675 283.254 536.746 283.254Z" fill="#E8E8E8"/>
<path d="M536.208 295.808C520.561 295.808 504.915 295.808 489.268 295.808C488.339 295.808 488.339 294.354 489.268 294.354C504.915 294.354 520.561 294.354 536.208 294.354C537.137 294.354 537.137 295.808 536.208 295.808Z" fill="#E8E8E8"/>
<path d="M489.464 284.611C489.464 287.907 489.464 291.252 489.464 294.548C489.464 295.469 487.997 295.469 487.997 294.548C487.997 291.252 487.997 287.907 487.997 284.611C487.997 283.69 489.464 283.69 489.464 284.611Z" fill="#E8E8E8"/>
<path d="M454.258 39.8196C450.884 39.6742 447.559 39.2864 444.283 38.6562C443.354 38.4623 443.746 37.0566 444.675 37.2505C447.853 37.8322 451.031 38.22 454.258 38.3654C455.236 38.4139 455.236 39.8681 454.258 39.8196Z" fill="#E8E8E8"/>
<path d="M444.283 37.7352C445.701 32.5001 445.701 27.0226 444.088 21.8359C442.719 17.3279 438.611 9.47517 432.597 12.2866C427.512 14.6618 426.827 21.7874 425.996 26.6348C424.969 32.4031 424.48 38.2684 424.383 44.1337C424.383 45.0547 422.916 45.0547 422.916 44.1337C423.062 36.7658 423.845 29.4463 425.36 22.2237C426.387 17.4248 428.343 10.8809 434.26 10.2992C439.491 9.81449 442.963 14.9527 444.674 19.1214C447.119 25.1806 447.413 31.8699 445.701 38.123C445.457 39.044 444.039 38.6562 444.283 37.7352Z" fill="#E8E8E8"/>
<path d="M453.769 37.7352C455.578 29.8825 454.747 21.4965 451.178 14.2255C448 7.82701 441.79 1.57393 434.162 1.4285C425.752 1.28308 420.129 8.69953 417.782 15.9221C415.141 24.0172 414.506 32.9363 414.554 41.4192C414.554 42.3402 413.088 42.3402 413.088 41.4192C413.039 33.5664 413.674 25.5198 415.679 17.9095C417.244 11.9473 420.178 6.08196 425.507 2.59187C436.704 -4.77611 448.782 4.87012 453.231 15.195C456.361 22.466 456.996 30.4641 455.236 38.1714C454.992 39.044 453.574 38.6562 453.769 37.7352Z" fill="#E8E8E8"/>
<path d="M424.187 45.2486C420.324 47.6238 415.092 45.7818 413.43 41.6616C413.088 40.7891 414.506 40.4013 414.848 41.2738C416.168 44.57 420.422 45.8788 423.405 43.9883C424.236 43.5036 424.969 44.7639 424.187 45.2486Z" fill="#E8E8E8"/>
<path d="M456.165 58.0941C456.165 70.4063 456.165 82.6701 456.165 94.9824C456.165 95.9034 454.698 95.9034 454.698 94.9824C454.698 82.6701 454.698 70.4063 454.698 58.0941C454.698 57.1731 456.165 57.1731 456.165 58.0941Z" fill="#E8E8E8"/>
<path d="M454.894 59.1605C440.274 56.6884 425.898 53.1983 411.816 48.6902C410.936 48.3994 411.327 46.9937 412.207 47.2845C426.29 51.841 440.665 55.3311 455.285 57.7548C456.214 57.9002 455.774 59.3059 454.894 59.1605Z" fill="#E8E8E8"/>
<path d="M411.523 49.5626C411.523 61.0993 411.523 72.5875 411.523 84.1242C411.523 85.0452 410.056 85.0452 410.056 84.1242C410.056 72.5875 410.056 61.0993 410.056 49.5626C410.056 48.6416 411.523 48.6416 411.523 49.5626Z" fill="#E8E8E8"/>
<path d="M454.503 96.6304C439.98 94.3522 425.654 90.9106 411.67 86.3541C410.789 86.0632 411.181 84.6575 412.061 84.9483C426.045 89.5048 440.372 92.9465 454.894 95.2247C455.823 95.3701 455.432 96.7759 454.503 96.6304Z" fill="#E8E8E8"/>
<path d="M433.575 71.0364C434.064 69.7761 434.651 68.3703 434.7 67.0131C434.749 65.365 433.624 63.1837 431.668 63.6684C428.685 64.3955 429.517 69.1459 430.592 70.9879C431.081 71.812 429.81 72.5391 429.321 71.715C427.708 69.0005 427.267 62.7959 431.57 62.1173C433.282 61.8749 434.895 63.0383 435.678 64.5409C436.802 66.7707 435.873 69.3398 435.042 71.4727C434.651 72.2967 433.233 71.9089 433.575 71.0364Z" fill="#E8E8E8"/>
<path d="M434.749 70.891C434.553 74.3811 434.357 77.9196 434.162 81.4097C434.064 82.9609 433.282 83.8334 431.521 83.4456C429.859 83.0578 429.028 81.6521 428.832 80.1009C428.637 78.5013 429.077 76.8532 429.223 75.3021C429.37 73.4601 429.37 71.6181 429.223 69.7276C429.174 68.8066 430.641 68.8066 430.69 69.7276C430.788 71.5696 430.837 73.4116 430.69 75.3021C430.592 76.5624 429.37 81.4582 431.375 81.846C433.428 82.2338 432.891 77.8712 432.988 76.6593C433.086 74.7689 433.184 72.8299 433.331 70.9395C433.331 69.97 434.798 69.97 434.749 70.891Z" fill="#E8E8E8"/>
<path d="M326.101 43.7943C326.101 54.2161 326.101 64.6379 326.101 75.0597C326.101 75.9807 324.634 75.9807 324.634 75.0597C324.634 64.6379 324.634 54.2161 324.634 43.7943C324.634 42.8733 326.101 42.8733 326.101 43.7943Z" fill="#E8E8E8"/>
<path d="M355.292 78.162C336.956 78.162 318.669 78.162 300.333 78.162C299.404 78.162 299.404 76.7078 300.333 76.7078C318.669 76.7078 336.956 76.7078 355.292 76.7078C356.221 76.7078 356.221 78.162 355.292 78.162Z" fill="#E8E8E8"/>
<path d="M307.521 79.8587C307.521 88.1477 307.521 96.4367 307.521 104.677C307.521 105.598 306.054 105.598 306.054 104.677C306.054 96.3882 306.054 88.0992 306.054 79.8587C306.054 78.9377 307.521 78.9377 307.521 79.8587Z" fill="#E8E8E8"/>
<path d="M569.507 185.579C551.708 185.579 533.959 185.579 516.161 185.579C515.232 185.579 515.232 184.125 516.161 184.125C533.959 184.125 551.708 184.125 569.507 184.125C570.436 184.125 570.436 185.579 569.507 185.579Z" fill="#E8E8E8"/>
<path d="M539.631 183.253C539.631 178.696 539.631 174.188 539.631 169.632C539.631 168.711 541.098 168.711 541.098 169.632C541.098 174.188 541.098 178.696 541.098 183.253C541.098 184.174 539.631 184.174 539.631 183.253Z" fill="#E8E8E8"/>
<path d="M523.349 187.227C523.349 192.559 523.349 197.892 523.349 203.272C523.349 204.193 521.882 204.193 521.882 203.272C521.882 197.94 521.882 192.608 521.882 187.227C521.882 186.306 523.349 186.306 523.349 187.227Z" fill="#E8E8E8"/>
<path d="M132.749 269.481C110.648 269.481 88.5471 269.481 66.446 269.481C65.517 269.481 65.517 268.026 66.446 268.026C88.5471 268.026 110.648 268.026 132.749 268.026C133.678 268.026 133.678 269.481 132.749 269.481Z" fill="#E8E8E8"/>
<path d="M91.5786 267.978C91.5786 263.179 91.5786 258.38 91.5786 253.533C91.5786 252.612 93.0455 252.612 93.0455 253.533C93.0455 258.331 93.0455 263.13 93.0455 267.978C93.0455 268.899 91.5786 268.899 91.5786 267.978Z" fill="#E8E8E8"/>
<path d="M100.429 254.26C83.1685 254.26 65.9571 254.26 48.6967 254.26C47.7677 254.26 47.7677 252.806 48.6967 252.806C65.9571 252.806 83.1685 252.806 100.429 252.806C101.358 252.806 101.358 254.26 100.429 254.26Z" fill="#E8E8E8"/>
<path d="M530.341 468.325C498.216 468.325 466.14 468.325 434.015 468.325C433.086 468.325 433.086 466.871 434.015 466.871C466.14 466.871 498.216 466.871 530.341 466.871C531.319 466.871 531.319 468.325 530.341 468.325Z" fill="#E8E8E8"/>
<path d="M489.219 460.521C454.209 460.521 419.2 460.521 384.141 460.521C383.212 460.521 383.212 459.067 384.141 459.067C419.151 459.067 454.16 459.067 489.219 459.067C490.148 459.067 490.148 460.521 489.219 460.521Z" fill="#E8E8E8"/>
<path d="M420.031 485.679C398.419 485.679 376.855 485.679 355.243 485.679C354.314 485.679 354.314 484.225 355.243 484.225C376.855 484.225 398.419 484.225 420.031 484.225C421.009 484.225 421.009 485.679 420.031 485.679Z" fill="#E8E8E8"/>
<path d="M335.978 457.903C322.532 457.903 309.134 457.903 295.688 457.903C294.759 457.903 294.759 456.449 295.688 456.449C309.134 456.449 322.532 456.449 335.978 456.449C336.956 456.449 336.956 457.903 335.978 457.903Z" fill="#E8E8E8"/>
<path d="M225.668 443.168C196.771 443.168 167.873 443.168 138.975 443.168C138.046 443.168 138.046 441.713 138.975 441.713C167.873 441.713 196.771 441.713 225.668 441.713C226.646 441.713 226.646 443.168 225.668 443.168Z" fill="#E8E8E8"/>
<path d="M164.401 423.196C129.978 423.196 95.5065 423.196 61.0835 423.196C60.1545 423.196 60.1545 421.742 61.0835 421.742C95.5065 421.742 129.978 421.742 164.401 421.742C165.33 421.742 165.33 423.196 164.401 423.196Z" fill="#E8E8E8"/>
<path d="M104.015 442.295C69.5916 442.295 35.1197 442.295 0.6968 442.295C-0.232231 442.295 -0.232231 440.841 0.6968 440.841C35.1197 440.841 69.5916 440.841 104.015 440.841C104.944 440.841 104.944 442.295 104.015 442.295Z" fill="#E8E8E8"/>
<path d="M144.256 473.512C128.805 473.512 113.305 473.512 97.8536 473.512C96.9246 473.512 96.9246 472.058 97.8536 472.058C113.305 472.058 128.805 472.058 144.256 472.058C145.234 472.058 145.234 473.512 144.256 473.512Z" fill="#E8E8E8"/>
<path opacity="0.07" d="M375.731 454.995C400.277 473.997 424.774 492.998 449.32 512C482.325 497.749 515.281 483.498 548.286 469.246C513.325 450.245 478.364 431.243 443.403 412.241C437.976 411.563 433.184 411.708 429.028 412.241C397.001 416.507 379.203 448.451 375.731 454.995Z" fill="#353535"/>
<path d="M449.515 195.613C450.004 268.954 450.493 342.246 450.982 415.586C426.925 430.613 402.868 445.64 378.811 460.667C353.287 442.877 327.764 425.087 302.191 407.249C302.338 345.542 302.533 283.787 302.68 222.08C323.95 203.806 345.171 185.483 366.441 167.208C394.165 176.66 421.84 186.113 449.515 195.613Z" fill="white"/>
<path d="M379.3 257.756C379.3 310.641 379.3 363.526 379.3 416.41C379.3 431.243 379.3 446.076 379.3 460.909C379.3 461.83 377.833 461.83 377.833 460.909C377.833 408.024 377.833 355.14 377.833 302.255C377.833 287.422 377.833 272.589 377.833 257.756C377.833 256.835 379.3 256.787 379.3 257.756Z" fill="#161616"/>
<path d="M303.316 222.565C303.218 270.796 303.169 319.075 303.071 367.306C303.071 380.831 303.022 394.306 303.022 407.83C303.022 408.751 301.555 408.751 301.555 407.83C301.653 359.599 301.702 311.32 301.8 263.088C301.8 249.564 301.849 236.089 301.849 222.565C301.898 221.644 303.364 221.644 303.316 222.565Z" fill="#161616"/>
<path d="M449.906 195.904C428.783 188.876 407.611 181.847 386.488 174.818C381.256 173.073 376.073 171.377 370.841 169.632C369.717 169.244 368.347 168.468 367.125 168.856C366.196 169.147 364.925 170.698 364.142 171.377C361.942 173.267 359.693 175.109 357.493 177C349.082 184.077 340.721 191.154 332.311 198.231C322.678 206.374 313.046 214.47 303.413 222.613C303.364 222.225 303.315 221.838 303.267 221.45C328.008 233.762 352.945 245.541 378.176 256.884C377.882 256.932 377.589 256.981 377.295 256.981C385.412 250.001 393.529 242.972 401.646 235.992C414.652 224.794 427.659 213.549 440.665 202.351C443.648 199.782 446.581 197.213 449.564 194.644C450.053 194.256 450.835 194.498 450.835 195.177C450.835 208.41 450.835 221.692 450.835 234.925C450.835 263.04 450.835 291.106 450.835 319.221C450.835 344.669 450.835 370.118 450.835 395.567C450.835 401.868 450.835 408.121 450.835 414.423C450.835 415.392 451.031 416.216 450.346 416.895C449.76 417.525 448.733 417.913 447.999 418.398C446.337 419.464 444.674 420.482 443.061 421.548C422.231 434.685 401.45 447.773 380.62 460.909C380.083 461.248 379.545 461.588 379.056 461.927C378.86 462.072 378.518 462.072 378.322 461.927C352.945 444.04 327.568 426.202 302.24 408.315C301.457 407.782 302.191 406.522 302.973 407.055C316.322 416.459 329.671 425.863 343.019 435.266C349.767 440.017 356.515 444.767 363.213 449.518C366.538 451.844 369.814 454.171 373.139 456.498C374.557 457.516 376.758 458.534 377.882 459.842C378.225 460.23 378.176 460.618 378.469 460.618C379.154 460.618 380.669 459.212 381.207 458.873C383.163 457.613 385.119 456.401 387.124 455.141C393.04 451.408 398.957 447.676 404.873 443.943C417.439 435.994 430.006 428.092 442.621 420.143C444.381 419.028 446.092 417.961 447.853 416.846C448.293 416.556 448.782 416.168 449.271 415.974C449.613 415.829 449.906 415.344 449.613 415.974C449.271 416.701 449.466 415.635 449.417 415.344C449.369 414.471 449.417 413.599 449.417 412.726C449.417 404.583 449.417 396.391 449.417 388.247C449.417 374.675 449.417 361.102 449.417 347.529C449.417 331.533 449.417 315.537 449.417 299.541C449.417 283.835 449.417 268.13 449.417 252.424C449.417 239.967 449.417 227.509 449.417 215.051C449.417 210.979 449.417 206.859 449.417 202.787C449.417 200.655 449.124 198.279 449.417 196.147C449.466 195.856 449.417 195.565 449.417 195.274C449.857 195.468 450.249 195.613 450.689 195.807C442.572 202.787 434.455 209.816 426.338 216.796C413.332 227.994 400.326 239.24 387.319 250.437C384.337 253.006 381.403 255.575 378.42 258.144C378.127 258.387 377.833 258.387 377.54 258.241C352.358 246.898 327.372 235.119 302.631 222.807C302.24 222.613 302.142 221.934 302.484 221.644C319.891 206.956 337.298 192.269 354.705 177.581C356.808 175.788 358.911 174.043 361.013 172.249C361.991 171.425 362.969 170.601 363.996 169.728C364.778 169.098 366.147 167.45 367.125 167.111C367.81 166.869 368.396 167.256 369.081 167.499C370.45 167.935 371.819 168.42 373.237 168.856C375.975 169.777 378.762 170.698 381.501 171.619C392.209 175.158 402.966 178.745 413.674 182.283C425.947 186.355 438.171 190.427 450.444 194.498C451.227 194.789 450.835 196.195 449.906 195.904Z" fill="#161616"/>
<path d="M439.785 421.258C439.785 411.708 439.785 402.208 439.785 392.658C439.785 391.737 441.252 391.737 441.252 392.658C441.252 402.208 441.252 411.708 441.252 421.258C441.252 422.179 439.785 422.179 439.785 421.258Z" fill="#161616"/>
<path d="M440.861 391.98C429.419 398.33 418.124 404.971 407.024 411.902C406.242 412.387 405.509 411.127 406.291 410.642C417.39 403.71 428.686 397.069 440.127 390.719C440.958 390.283 441.692 391.543 440.861 391.98Z" fill="#161616"/>
<path d="M407.269 411.563C407.905 421.5 408.54 431.485 409.176 441.423C409.225 442.344 407.758 442.344 407.709 441.423C407.073 431.485 406.438 421.5 405.802 411.563C405.753 410.642 407.22 410.642 407.269 411.563Z" fill="#161616"/>
<path d="M435.091 402.547C435.922 409.236 436.411 415.926 436.509 422.615C436.509 423.536 435.042 423.536 435.042 422.615C434.944 415.877 434.455 409.188 433.624 402.547C433.477 401.577 434.944 401.626 435.091 402.547Z" fill="#161616"/>
<path d="M427.316 405.988C428.196 412.92 428.832 419.852 429.174 426.783C429.223 427.704 427.756 427.704 427.708 426.783C427.316 419.852 426.73 412.872 425.849 405.988C425.703 405.067 427.17 405.067 427.316 405.988Z" fill="#161616"/>
<path d="M419.297 411.126C420.373 418.155 421.155 425.232 421.596 432.309C421.644 433.23 420.178 433.23 420.129 432.309C419.689 425.329 418.955 418.397 417.879 411.514C417.733 410.593 419.151 410.205 419.297 411.126Z" fill="#161616"/>
<path d="M413.332 414.52C413.772 420.773 414.212 426.978 414.603 433.231C414.652 434.152 413.185 434.152 413.136 433.231C412.696 426.978 412.256 420.773 411.865 414.52C411.816 413.599 413.283 413.599 413.332 414.52Z" fill="#161616"/>
<path d="M439.883 387.084C427.414 393.531 415.141 400.365 403.113 407.588C402.282 408.073 401.548 406.812 402.379 406.328C414.408 399.105 426.681 392.222 439.149 385.823C439.98 385.387 440.763 386.647 439.883 387.084Z" fill="#161616"/>
<path d="M439.003 385.969C439.003 383.448 439.003 380.976 439.003 378.455C439.003 377.534 440.469 377.534 440.469 378.455C440.469 380.976 440.469 383.448 440.469 385.969C440.469 386.938 439.003 386.938 439.003 385.969Z" fill="#161616"/>
<path d="M439.834 378.262C426.778 384.466 414.163 391.543 402.086 399.396C401.304 399.929 400.57 398.669 401.352 398.136C413.43 390.234 426.045 383.206 439.1 377.001C439.932 376.613 440.665 377.825 439.834 378.262Z" fill="#161616"/>
<path d="M402.868 399.832C403.113 402.014 403.357 404.243 403.602 406.425C403.7 407.346 402.233 407.346 402.135 406.425C401.89 404.243 401.646 402.014 401.401 399.832C401.304 398.911 402.771 398.911 402.868 399.832Z" fill="#161616"/>
<path d="M373.677 263.525C354.657 255.236 336.027 246.026 317.936 235.895C317.104 235.459 317.838 234.198 318.669 234.635C336.809 244.717 355.39 253.927 374.411 262.265C375.291 262.652 374.557 263.913 373.677 263.525Z" fill="#161616"/>
<path d="M374.851 262.798C374.851 266.821 374.851 270.844 374.851 274.868C374.851 275.789 373.384 275.789 373.384 274.868C373.384 270.844 373.384 266.821 373.384 262.798C373.384 261.877 374.851 261.877 374.851 262.798Z" fill="#161616"/>
<path d="M373.482 274.868C360.231 269.051 347.273 262.604 334.609 255.575C333.778 255.139 334.511 253.879 335.343 254.315C348.007 261.343 360.964 267.742 374.215 273.607C375.046 273.995 374.313 275.255 373.482 274.868Z" fill="#161616"/>
<path d="M374.068 328.673C374.068 363.865 374.068 399.057 374.068 434.2C374.068 435.121 372.602 435.121 372.602 434.2C372.602 399.008 372.602 363.816 372.602 328.673C372.602 327.752 374.068 327.752 374.068 328.673Z" fill="#161616"/>
<path d="M369.961 385.969C369.961 405.067 369.961 424.166 369.961 443.265C369.961 444.186 368.494 444.186 368.494 443.265C368.494 424.166 368.494 405.067 368.494 385.969C368.494 385.048 369.961 385.048 369.961 385.969Z" fill="#161616"/>
<path d="M447.853 206.617C447.853 231.338 447.853 256.108 447.853 280.83C447.853 281.751 446.386 281.751 446.386 280.83C446.386 256.108 446.386 231.338 446.386 206.617C446.386 205.696 447.853 205.696 447.853 206.617Z" fill="#161616"/>
<path d="M443.648 260.277C443.648 288.876 443.648 317.524 443.648 346.124C443.648 347.045 442.181 347.045 442.181 346.124C442.181 317.524 442.181 288.876 442.181 260.277C442.181 259.356 443.648 259.356 443.648 260.277Z" fill="#161616"/>
<path opacity="0.06" d="M450.689 195.565C450.689 269.099 450.689 342.634 450.689 416.168C426.632 431.195 402.624 446.221 378.567 461.248C378.567 393.143 378.567 325.038 378.567 256.884C402.624 236.477 426.632 216.021 450.689 195.565Z" fill="#353535"/>
<path opacity="0.1" d="M448.635 221.595C441.35 256.593 434.211 285.677 428.539 307.296C419.737 340.937 415.239 354.025 409.274 367.404C399.054 390.332 387.515 407.83 378.958 419.416C378.665 385.678 378.42 351.989 378.127 318.251C375.731 365.416 354.217 395.033 337.152 394.646C323.363 394.306 309.868 374.481 302.338 350.341C302.338 369.585 302.338 388.78 302.338 408.024C327.617 425.475 352.896 442.974 378.127 460.424C402.037 445.543 425.947 430.613 449.858 415.732C449.466 351.02 449.075 286.307 448.635 221.595Z" fill="#353535"/>
<path opacity="0.39" d="M292.216 198.667C314.806 211.319 337.347 223.97 359.937 236.622C373.335 218.638 386.781 200.606 400.179 182.622C374.362 172.588 348.496 162.506 322.678 152.472C312.508 167.887 302.338 183.253 292.216 198.667Z" fill="#EC615B"/>
<g opacity="0.39">
<path d="M391.72 186.694C389.226 188.342 386.733 189.99 384.19 191.638C383.799 191.881 383.212 191.638 383.114 191.202C382.038 186.258 380.327 181.604 377.882 177.193C377.442 176.369 378.714 175.642 379.154 176.466C381.647 181.023 383.408 185.822 384.532 190.863C384.19 190.717 383.799 190.572 383.456 190.427C385.95 188.779 388.444 187.13 390.986 185.482C391.769 184.901 392.502 186.161 391.72 186.694Z" fill="#EC615B"/>
</g>
<path d="M371.624 176.466C370.792 175.206 369.668 174.236 368.25 173.655C367.81 173.461 368.201 172.831 368.641 173.025C370.157 173.703 371.379 174.77 372.259 176.127C372.504 176.515 371.868 176.854 371.624 176.466Z" fill="#EC615B"/>
<path d="M371.575 179.52C370.597 176.515 367.859 174.333 364.68 173.994C364.191 173.946 364.191 173.218 364.68 173.267C368.201 173.606 371.184 175.933 372.259 179.326C372.406 179.762 371.721 179.956 371.575 179.52Z" fill="#EC615B"/>
<path d="M370.743 181.992C369.668 177.727 366.636 174.624 361.991 176.127C361.551 176.272 361.355 175.594 361.795 175.448C366.783 173.8 370.255 177.145 371.428 181.798C371.575 182.235 370.89 182.428 370.743 181.992Z" fill="#EC615B"/>
<path d="M369.277 184.368C369.13 181.992 368.739 179.181 366.441 177.824C364.191 176.515 361.649 177.436 359.986 179.181C359.644 179.52 359.155 178.987 359.448 178.648C361.209 176.806 363.8 175.836 366.245 176.903C369.179 178.163 369.766 181.459 369.961 184.319C370.01 184.804 369.277 184.804 369.277 184.368Z" fill="#EC615B"/>
<path d="M367.076 187.13C366.587 184.367 368.885 181.847 366.392 179.472C364.583 177.775 362.284 178.648 360.817 180.199C359.497 181.653 358.959 183.543 358.715 185.434C358.666 185.87 357.933 185.919 357.982 185.434C358.373 182.235 360.426 177.193 364.631 177.727C366.147 177.92 367.467 179.229 368.054 180.587C368.983 182.768 367.37 184.707 367.761 186.888C367.859 187.373 367.125 187.567 367.076 187.13Z" fill="#EC615B"/>
<path d="M365.463 188.245C363.947 185.773 367.125 183.398 365.854 181.12C364.534 178.648 361.942 180.296 361.062 182.041C360.133 183.98 360.133 186.161 360.671 188.197C360.769 188.633 360.084 188.827 359.986 188.391C359.253 185.579 359.546 179.326 363.653 179.132C364.974 179.084 366.294 180.005 366.685 181.217C367.467 183.544 364.68 185.676 366.049 187.858C366.343 188.294 365.707 188.682 365.463 188.245Z" fill="#EC615B"/>
<path d="M363.751 188.779C362.969 186.937 363.165 185.192 364.094 183.495C364.289 183.204 364.436 182.865 364.583 182.526C363.507 181.798 362.871 181.992 362.676 183.01C362.48 183.495 362.333 183.98 362.284 184.513C362.04 186.016 362.284 187.47 362.822 188.876C363.018 189.312 362.284 189.506 362.138 189.069C361.453 187.373 361.258 185.579 361.698 183.834C361.942 182.719 362.578 180.877 363.996 180.829C364.925 180.78 365.463 181.508 365.414 182.38C365.365 183.156 364.778 183.834 364.485 184.513C363.898 185.87 363.947 187.276 364.534 188.633C364.631 189.021 363.947 189.215 363.751 188.779Z" fill="#EC615B"/>
<path d="M330.649 214.954C330.502 214.082 330.453 213.112 331.284 212.579C332.115 212.046 333.533 212.579 334.511 212.531C336.076 212.434 337.641 211.852 339.108 211.367C342.09 210.398 345.122 209.04 347.273 206.617C348.251 205.502 349.522 203.708 349.62 202.157C349.816 198.522 347.713 201.333 346.246 201.721C345.464 201.915 344.828 201.866 344.78 200.994C344.731 200.412 345.22 200.121 345.611 199.685C346.638 198.619 347.616 197.601 348.545 196.437C350.403 194.014 351.869 191.299 352.75 188.391C353.092 187.276 354.217 182.913 352.016 183.204C350.989 183.301 349.229 185.676 348.593 186.452C348.398 186.258 348.251 186.112 348.056 185.919C349.474 184.125 351.821 181.459 351.674 179.035C351.429 174.382 346.002 178.841 345.024 180.538C344.828 180.393 344.633 180.247 344.437 180.102C345.073 179.375 346.051 177.969 346.051 176.903C346.149 173.946 344.486 175.061 343.313 175.836C341.748 176.903 340.623 178.551 339.499 180.053C339.205 180.441 338.668 180.102 338.863 179.666C339.205 179.035 339.45 178.357 339.645 177.63C340.086 176.709 339.694 176.224 338.374 176.127C336.565 175.206 336.712 175.448 335.538 176.709C334.218 178.114 333.191 179.762 332.115 181.362C330.355 184.077 328.35 186.5 326.395 189.021C325.123 190.669 324.096 192.414 323.559 194.45C323.021 196.437 323.07 198.473 322.776 200.461C322.434 202.787 321.456 204.872 319.207 205.938C318.767 206.132 318.424 205.502 318.816 205.308C323.412 203.127 321.798 196.001 323.656 191.929C324.488 190.087 325.759 188.488 327.079 186.937C328.79 184.901 330.208 182.816 331.675 180.587C333.093 178.405 335.587 173.752 338.619 173.655C341.992 173.558 340.232 178.26 339.499 179.859C339.303 179.714 339.059 179.617 338.863 179.472C340.086 177.775 343.264 173.025 346.051 173.946C348.496 174.77 345.855 179.326 344.926 180.393C344.633 180.732 344.144 180.296 344.339 179.956C345.22 178.454 346.442 177.242 348.007 176.515C348.985 176.078 351.038 175.303 351.967 176.272C352.896 177.242 352.407 179.375 352.016 180.49C351.332 182.622 349.914 184.464 348.496 186.209C348.202 186.597 347.713 186.064 347.958 185.676C348.74 184.707 351.332 181.314 352.945 181.847C354.314 182.332 353.972 185.24 353.874 186.161C353.483 189.118 352.016 192.075 350.452 194.547C349.718 195.71 348.887 196.825 348.007 197.843C347.567 198.376 346.638 198.958 346.344 199.588C345.415 200.218 345.611 200.412 346.98 200.17C347.371 199.927 347.811 199.734 348.202 199.491C349.425 198.861 350.207 198.861 350.452 200.412C350.745 202.497 349.278 205.017 348.007 206.52C346.246 208.653 343.802 210.01 341.259 211.028C339.743 211.61 338.13 212.143 336.565 212.531C335.391 212.821 331.089 212.628 331.333 214.421C331.431 215.245 330.697 215.439 330.649 214.954Z" fill="#EC615B"/>
<path d="M349.18 185.628C347.127 188.1 345.464 190.911 343.655 193.578C343.411 193.965 342.775 193.578 343.019 193.19C344.877 190.475 346.589 187.615 348.691 185.095C348.985 184.755 349.474 185.24 349.18 185.628Z" fill="#EC615B"/>
<path d="M346.149 178.987C344.144 181.701 342.286 184.464 340.526 187.324C340.281 187.712 339.645 187.373 339.89 186.937C341.65 184.077 343.508 181.314 345.513 178.599C345.757 178.26 346.393 178.599 346.149 178.987Z" fill="#EC615B"/>
<path d="M400.375 182.72C387.221 200.8 373.775 218.687 359.986 236.283C359.693 236.671 359.204 236.137 359.448 235.75C373.188 218.154 386.586 200.364 399.739 182.332C399.983 181.992 400.619 182.332 400.375 182.72Z" fill="#EC615B"/>
<path d="M213.395 433.958C212.613 443.119 211.831 452.232 211.048 461.394C229.482 469.489 238.381 474.675 237.697 476.905C236.866 479.62 222.148 478.069 193.592 472.252C194.179 456.74 194.815 441.18 195.402 425.669C201.367 428.432 207.381 431.195 213.395 433.958Z" fill="#161616"/>
<path d="M195.45 237.446C192.663 239.288 192.174 243.408 191.196 251.6C190.708 255.527 190.463 260.374 191.685 274.431C191.832 275.934 192.223 280.733 193.446 291.058C195.206 306.182 195.695 307.975 196.184 314.374C196.575 319.366 196.82 324.65 196.673 335.993C196.526 346.802 196.379 361.587 194.668 382.188C193.397 397.457 191.245 416.459 187.383 438.272C191.197 440.259 194.766 441.471 197.651 442.247C204.056 443.943 209.239 443.992 213.689 443.992C217.943 443.992 221.659 443.652 224.69 443.265C226.108 435.945 227.966 424.942 229.433 411.466C230.216 404.486 230.705 396.779 231.683 381.655C233.052 360.472 233.736 349.905 233.932 340.937C234.03 336.962 234.03 333.666 233.443 306.424C232.563 265.561 232.22 260.568 227.918 254.024C219.361 240.936 202.003 233.083 195.45 237.446Z" fill="white"/>
<path d="M191.783 238.803C190.952 251.988 191.197 265.173 192.517 278.309C193.837 291.106 196.037 303.758 196.869 316.555C198.58 342.828 196.82 369.246 193.886 395.373C192.223 409.963 190.219 424.554 188.165 439.096C188.018 440.017 186.6 439.629 186.747 438.708C190.414 412.484 194.081 386.211 195.499 359.745C196.184 346.802 196.331 333.763 195.695 320.821C195.011 307.927 193.104 295.275 191.539 282.478C189.779 267.984 189.387 253.345 190.316 238.755C190.365 237.834 191.832 237.834 191.783 238.803Z" fill="#161616"/>
<path d="M234.176 301.964C235.35 338.804 233.932 375.693 229.776 412.339C228.651 422.518 227.282 432.649 225.717 442.78C225.571 443.701 224.153 443.313 224.299 442.392C229.825 406.182 232.758 369.585 233.052 332.939C233.15 322.614 233.003 312.289 232.661 301.964C232.661 300.995 234.127 300.995 234.176 301.964Z" fill="#161616"/>
<path d="M225.277 443.846C212.564 446.367 199.411 444.719 187.725 439.096C186.894 438.708 187.627 437.448 188.458 437.836C199.753 443.265 212.564 444.913 224.886 442.441C225.815 442.247 226.206 443.652 225.277 443.846Z" fill="#161616"/>
<path opacity="0.09" d="M229.14 266.094C230.46 275.255 231.683 285.677 232.514 297.214C233.003 303.516 233.687 314.325 233.785 327.898C233.883 339.192 233.443 348.741 232.514 367.452C231.487 388.587 230.949 399.396 229.531 411.175C227.918 424.748 225.913 435.8 224.446 443.119C221.023 443.846 216.329 444.38 210.853 443.943C207.235 443.652 204.105 442.974 201.514 442.247C205.67 426.832 209.484 410.69 212.955 393.87C222.49 347.917 227.282 304.921 229.14 266.094Z" fill="#353535"/>
<path opacity="0.09" d="M232.954 313.646C230.851 331 228.993 345.93 227.429 357.806C223.419 388.877 222.148 396.682 219.361 406.57C214.764 422.954 208.75 435.606 204.496 443.555C207.479 444.283 212.32 445.058 218.089 443.992C220.779 443.507 223.077 442.683 224.886 441.907C226.891 430.128 228.602 417.768 229.971 404.922C233.541 371.815 234.078 341.179 232.954 313.646Z" fill="#353535"/>
<path d="M268.99 439.144C269.675 448.791 270.359 458.485 271.093 468.131C294.074 473.754 305.369 477.826 305.027 480.298C304.636 483.255 287.669 483.934 254.126 482.383C253.099 468.422 252.023 454.413 250.997 440.453C257.011 439.968 263.025 439.532 268.99 439.144Z" fill="#161616"/>
<path d="M248.698 239.288C251.583 242.342 253.49 246.22 253.49 246.22C254.664 248.595 255.397 250.631 255.691 252.279C256.228 255.914 257.011 260.956 257.891 266.966C259.798 280.103 261.118 290.379 261.803 295.905C264.247 315.052 265.616 327.461 268.355 350.389C272.413 384.272 273.587 391.592 276.618 419.125C277.743 429.353 278.672 437.787 279.259 443.313C278.427 444.622 277.009 446.464 274.76 448.112C274.222 448.5 273.195 449.227 270.115 450.681C267.279 451.99 264.394 453.153 263.123 453.589C255.544 456.013 241.853 452.378 241.119 452.184C241.119 446.9 241.022 439.774 240.631 431.292C240.484 427.898 239.995 418.737 238.088 401.141C236.377 385.387 235.056 372.93 232.074 356.158C229.922 343.894 227.82 334.538 225.913 326.395C223.028 313.598 220.192 302.691 217.845 294.209C214.471 287.665 211.097 281.121 207.723 274.577C206.745 273.171 197.797 260.035 202.883 248.11C210.51 229.981 242.391 232.599 248.698 239.288Z" fill="white"/>
<path d="M250.361 233.956C259.505 258.871 261.46 285.774 264.541 311.901C267.866 339.919 271.191 367.937 274.467 396.003C276.325 411.708 278.183 427.414 280.041 443.071C280.139 443.992 278.672 443.992 278.574 443.071C275.298 415.198 271.973 387.326 268.697 359.454C265.47 332.066 262.634 304.63 258.869 277.34C256.864 262.749 254.077 248.207 248.943 234.344C248.65 233.471 250.068 233.083 250.361 233.956Z" fill="#161616"/>
<path d="M208.066 274.092C215.791 286.162 221.903 299.153 226.206 312.822C226.5 313.695 225.082 314.083 224.788 313.21C220.534 299.686 214.471 286.792 206.794 274.819C206.305 274.044 207.577 273.268 208.066 274.092Z" fill="#161616"/>
<path d="M217.747 291.688C229.58 332.212 237.159 373.947 240.19 416.022C241.071 428.092 241.56 440.162 241.706 452.232C241.706 453.153 240.239 453.153 240.239 452.232C239.75 410.012 234.763 367.888 225.375 326.734C222.734 315.101 219.703 303.564 216.329 292.124C216.085 291.203 217.454 290.815 217.747 291.688Z" fill="#161616"/>
<path d="M279.894 443.846C270.262 455.141 254.37 458.582 240.777 452.523C239.897 452.135 240.679 450.875 241.511 451.263C254.517 457.031 269.675 453.541 278.867 442.78C279.503 442.101 280.53 443.119 279.894 443.846Z" fill="#161616"/>
<path opacity="0.06" d="M238.919 243.408C233.101 248.692 242.293 266.094 247.818 279.569C255.886 299.25 257.598 331.775 260.971 396.924C261.705 410.69 262.487 429.983 262.683 453.299C264.394 453.056 266.448 452.571 268.599 451.602C274.32 449.13 277.645 445.01 279.21 442.78C277.841 433.134 275.885 418.543 273.684 400.705C268.648 359.793 267.621 343.021 263.905 313.646C261.803 297.02 258.527 273.171 253.295 244.232C253.344 244.232 253.344 244.232 238.919 243.408Z" fill="#353535"/>
<path opacity="0.06" d="M262.683 307.345C260.091 343.651 262.829 366.87 266.057 381.8C268.844 394.597 268.208 407.927 269.871 420.918C270.702 427.268 271.826 435.266 267.328 442.78C264.101 448.16 259.309 451.214 255.886 452.862C257.891 453.25 263.123 453.977 269.039 451.602C274.809 449.275 278.036 445.3 279.21 443.604C276.863 423.439 274.418 403.225 272.022 383.06C268.941 357.757 265.812 332.551 262.683 307.345Z" fill="#353535"/>
<path d="M206.648 127.944C207.675 128.526 207.235 134.198 206.306 145.395C206.208 146.316 206.159 147.382 206.012 148.837C205.67 152.133 205.23 155.332 204.692 158.774C200.634 184.901 194.864 204.29 194.864 204.29C192.077 213.646 188.116 225.182 182.493 238.028C181.564 239.676 179.706 242.342 176.577 243.893C173.203 245.59 170.171 245.105 165.673 244.281C156.969 242.681 151.395 238.755 149.39 237.204C146.457 234.974 142.594 232.017 142.936 228.575C143.083 227.364 143.767 225.57 145.283 225.037C146.603 224.552 148.266 225.182 149.39 226.588C147.092 223.437 145.479 220.529 144.403 218.348C141.909 213.306 141.909 211.561 142.447 210.301C142.545 210.107 143.132 208.75 144.403 208.12C144.745 207.974 145.43 207.683 147.63 208.12C150.222 208.604 150.613 209.235 152.275 209.283C153.84 209.331 154.329 208.798 155.502 208.701C157.018 208.556 159.267 209.138 162.299 212.628C162.788 212.24 163.521 211.804 164.45 211.852C166.015 211.901 167.237 213.355 170.367 218.735C171.345 220.383 172.567 222.565 173.936 225.231C174.621 222.225 175.648 217.572 176.821 211.901C180.831 191.929 180.244 188.052 183.275 173.461C187.529 152.714 192.028 144.038 195.988 138.172C199.802 132.259 204.839 126.878 206.648 127.944Z" fill="white"/>
<path d="M206.501 129.011C204.301 127.993 201.66 131.871 200.487 133.277C199.02 135.07 197.651 136.912 196.428 138.851C194.13 142.39 192.223 146.17 190.61 150.097C186.991 158.774 184.889 167.984 183.226 177.194C181.515 186.791 180.146 196.438 178.63 206.035C177.31 214.373 176.43 223.243 171.736 230.514C171.247 231.29 169.976 230.563 170.465 229.787C174.621 223.389 175.648 215.778 176.772 208.459C178.043 200.218 179.315 191.978 180.635 183.737C183.031 168.759 186.062 153.393 193.886 140.16C195.744 137.057 197.846 134.101 200.193 131.338C201.954 129.35 204.252 126.393 207.186 127.751C208.115 128.138 207.381 129.399 206.501 129.011Z" fill="#161616"/>
<path d="M206.794 149.418C205.083 164.348 202.345 179.132 198.531 193.674C194.815 207.829 190.463 222.419 184.204 235.701C181.564 241.227 176.577 247.335 169.633 245.541C168.704 245.299 169.095 243.893 170.024 244.135C179.755 246.705 183.96 232.89 186.502 226.346C189.632 218.202 192.419 209.962 194.864 201.624C199.851 184.561 203.323 167.111 205.376 149.467C205.425 148.497 206.892 148.449 206.794 149.418Z" fill="#161616"/>
<path d="M173.105 226.152C171.834 223.583 170.611 220.965 169.34 218.396C168.02 215.73 166.406 211.997 162.837 212.337C161.908 212.434 161.908 210.98 162.837 210.883C165.624 210.64 167.629 212.434 168.998 214.615C171.1 217.96 172.616 221.838 174.376 225.376C174.767 226.249 173.545 226.976 173.105 226.152Z" fill="#161616"/>
<path d="M165.771 219.996C163.668 216.506 159.659 206.811 154.182 209.768C153.351 210.204 152.617 208.944 153.449 208.507C160.147 204.872 164.499 215.003 167.042 219.22C167.531 220.093 166.26 220.82 165.771 219.996Z" fill="#161616"/>
<path d="M161.517 221.789C159.756 219.317 157.947 216.845 156.187 214.373C154.28 211.707 151.737 208.459 148.021 208.992C147.092 209.138 146.701 207.732 147.63 207.586C150.71 207.102 153.204 208.556 155.209 210.786C158.045 213.888 160.343 217.669 162.788 221.062C163.375 221.789 162.103 222.516 161.517 221.789Z" fill="#161616"/>
<path d="M157.36 222.855C155.258 220.383 153.204 217.863 151.102 215.391C149.879 213.936 144.99 206.423 142.936 210.883C142.398 211.997 143.278 214.276 143.669 215.391C144.207 216.845 144.99 218.202 145.723 219.559C147.386 222.565 149.097 225.522 151.248 228.188C151.835 228.915 150.808 229.933 150.222 229.206C147.532 225.812 145.283 222.031 143.327 218.154C142.105 215.73 140.198 211.319 142.105 208.75C144.012 206.181 147.288 208.701 148.755 210.349C152.08 214.082 155.209 218.008 158.387 221.838C158.974 222.516 157.947 223.534 157.36 222.855Z" fill="#161616"/>
<path d="M148.363 208.944C147.63 209.041 146.945 209.234 146.261 209.477C145.87 209.622 145.479 209.331 145.381 208.992C145.283 208.556 145.527 208.265 145.87 208.12C146.652 207.829 147.483 207.635 148.363 207.538C148.755 207.489 149.097 207.926 149.097 208.265C149.097 208.653 148.755 208.895 148.363 208.944Z" fill="#161616"/>
<path d="M147.728 226.297C146.603 224.892 144.403 225.861 143.963 227.412C143.767 228.091 143.767 228.915 143.914 229.594C144.256 231.193 145.283 232.599 146.408 233.762C148.412 235.895 150.808 237.737 153.351 239.191C158.436 242.1 164.206 243.554 170.025 243.99C170.954 244.039 170.954 245.493 170.025 245.444C161.223 244.814 152.569 241.809 146.163 235.604C143.816 233.326 141.469 230.127 142.643 226.685C143.523 224.068 146.848 222.856 148.755 225.231C149.39 226.006 148.315 227.024 147.728 226.297Z" fill="#161616"/>
<path opacity="0.08" d="M206.061 128.769C204.985 132.598 203.421 138.512 201.611 145.783C196.966 164.639 193.935 180.49 188.263 203.854C182.542 227.412 180.39 232.744 175.11 234.78C169.242 237.01 157.654 235.895 150.417 229.933C148.119 228.042 145.821 225.328 144.647 225.958C143.425 226.637 143.767 230.611 145.332 233.665C148.266 239.482 155.16 241.469 161.81 243.36C167.237 244.911 169.976 245.687 173.398 244.669C178.435 243.166 181.319 238.997 182.737 236.961C184.498 234.392 184.791 232.89 187.187 226.346C189.632 219.608 189.827 219.802 191.637 214.858C195.255 205.017 197.406 196.389 198.775 191.009C201.563 179.957 204.105 169.729 205.474 155.914C206.061 149.03 206.55 139.772 206.061 128.769Z" fill="#353535"/>
<path opacity="0.06" d="M183.569 231.823C182.2 233.229 175.745 239.579 165.33 239.967C153.498 240.403 145.968 232.744 144.843 231.581C146.114 233.714 148.608 237.107 152.862 239.724C155.551 241.421 157.849 242.1 160.441 242.827C167.14 244.766 171.491 245.977 175.599 244.135C181.857 241.372 183.324 233.18 183.569 231.823Z" fill="#353535"/>
<path d="M210.266 123.921C215.498 123.291 220.436 126.829 223.126 128.768C230.607 134.149 233.492 141.759 234.812 145.056C242.88 165.075 245.227 189.312 246.254 198.425C247.574 209.865 250.165 226.54 256.033 246.801C252.61 249.564 239.066 259.889 219.214 259.259C202.247 258.677 190.659 250.388 186.894 247.383C185.818 227.945 185.671 211.561 185.769 199.297C186.013 176.903 186.796 166.626 190.219 154.799C192.859 145.686 198.775 125.278 210.266 123.921Z" fill="#EC615B"/>
<path opacity="0.08" d="M214.422 125.424C219.312 130.174 207.626 148.691 205.719 153.005C196.917 172.879 192.859 205.017 213.884 258.823C210.999 258.29 207.772 257.514 204.35 256.302C197.211 253.878 191.588 250.582 187.48 247.674C187.138 244.135 186.698 239.385 186.356 233.762C185.818 224.794 185.769 217.426 185.818 211.222C185.916 192.317 185.965 182.865 187.48 170.31C188.263 164.057 189.974 152.375 195.646 139.142C199.02 131.337 202.492 125.908 208.017 124.648C208.701 124.454 212.515 123.582 214.422 125.424Z" fill="#353535"/>
<path opacity="0.05" d="M186.894 181.12C187.872 181.023 189.143 189.894 191.392 201.43C196.135 225.716 202.051 244.669 206.257 256.836C203.469 255.769 200.536 254.557 197.553 253.2C193.886 251.552 190.414 249.855 187.138 248.207C185.036 192.657 185.769 181.217 186.894 181.12Z" fill="#353535"/>
<path d="M221.463 130.998C223.028 130.368 224.495 130.465 225.375 130.61C226.842 132.356 229.14 135.119 231.927 138.512C244.2 153.684 245.276 157.222 253.832 166.917C262.047 176.224 267.719 180.587 271.924 183.398C276.667 186.549 280.188 188.149 281.263 188.633C289.038 192.075 296.079 193.141 300.724 193.529C302.142 192.85 304.196 191.736 306.249 189.894C308.89 187.47 310.112 185.143 311.383 183.01C316.224 174.915 317.544 172.589 319.353 172.637C319.989 172.637 321.016 172.976 322.287 174.867C322.776 174.528 323.607 173.897 324.536 173.073C326.835 171.037 327.47 169.826 329.377 169.002C330.208 168.662 331.284 168.177 332.213 168.711C333.142 169.244 333.338 170.504 333.387 170.795C334.218 169.923 336.223 168.129 339.059 167.984C339.841 167.935 340.966 167.887 341.503 168.565C342.335 169.535 341.552 171.861 339.499 174.285C339.988 174.14 342.335 173.364 343.313 174.431C344.388 175.545 343.264 178.018 342.53 179.617C341.063 182.865 339.156 184.513 335.196 188.876C333.582 190.669 332.311 192.123 331.48 193.044C332.311 192.947 333.631 192.754 335.098 192.172C337.298 191.299 338.032 190.281 339.01 190.572C340.085 190.912 340.672 192.705 340.477 194.111C340.232 195.71 338.716 196.68 337.787 197.213C332.164 200.606 325.221 202.303 323.07 202.836C317.74 204.145 315.051 204.775 313.046 205.017C309.574 205.454 306.103 205.647 300.92 205.405C286.544 204.727 275.347 201.818 272.951 201.188C267.768 199.831 263.221 198.619 257.5 196.05C252.17 193.675 240.435 188.294 230.167 176.127C224.544 169.486 222.148 164.009 217.307 153.102C216.72 151.745 215.547 149.079 215.351 145.492C215.107 140.451 216.525 132.937 221.463 130.998Z" fill="white"/>
<path d="M221.854 129.98C225.228 128.72 227.771 131.871 229.678 134.198C232.416 137.494 235.007 140.887 237.599 144.328C243.222 151.842 248.649 159.549 254.859 166.675C266.594 180.247 282.046 192.22 300.871 192.657C301.8 192.657 301.8 194.111 300.871 194.111C283.855 193.723 269.186 184.077 257.891 172.152C252.023 165.948 246.84 159.161 241.755 152.327C239.066 148.691 236.377 145.056 233.638 141.469C232.025 139.384 230.362 137.3 228.7 135.264C227.184 133.422 225.082 130.417 222.294 131.435C221.365 131.677 221.023 130.271 221.854 129.98Z" fill="#161616"/>
<path d="M216.183 144.377C222.637 188.391 273.782 208.459 313.828 203.999C320.38 203.272 327.03 201.77 333.044 199.007C334.56 198.328 336.076 197.552 337.445 196.631C338.032 196.244 338.619 195.904 339.059 195.371C340.183 194.547 340.281 193.675 339.45 192.705C339.352 191.396 338.716 191.008 337.494 191.493C335.098 192.026 333.582 194.062 330.991 194.111C330.062 194.111 330.062 192.657 330.991 192.657C333.631 192.608 335.343 190.136 337.934 189.942C339.792 189.797 341.357 190.815 341.601 192.705C342.09 197.165 335.294 199.637 332.067 200.994C320.087 205.938 306.689 206.617 293.928 205.551C270.36 203.563 246.351 195.129 230.411 177.194C222.295 168.032 216.574 156.883 214.813 144.765C214.618 143.844 216.036 143.456 216.183 144.377Z" fill="#161616"/>
<path d="M330.6 192.899C331.773 190.766 333.631 189.409 335.343 187.761C337.787 185.386 339.792 182.041 341.455 179.035C341.895 178.211 342.335 177.387 342.579 176.515C343.215 175.303 342.824 174.867 341.503 175.255C340.672 174.915 340.037 175.109 339.548 175.739C338.325 176.466 337.152 177.872 336.174 178.89C333.778 181.314 331.675 184.028 329.817 186.888C329.328 187.664 328.057 186.937 328.546 186.161C330.013 183.931 341.308 168.42 343.948 173.897C345.513 177.048 341.601 181.556 340.085 183.98C338.961 185.725 337.885 187.373 336.369 188.827C334.756 190.378 332.947 191.639 331.822 193.674C331.431 194.45 330.16 193.723 330.6 192.899Z" fill="#161616"/>
<path d="M337.592 175.061C338.227 174.43 342.97 168.662 339.939 168.323C339.254 168.226 337.494 169.68 336.907 170.068C335.929 170.747 334.951 171.522 334.071 172.395C330.844 175.351 328.301 178.939 325.808 182.477C325.27 183.253 323.999 182.526 324.536 181.75C328.301 176.466 332.604 169.971 338.814 167.256C340.33 166.578 342.384 166.481 342.579 168.565C342.824 171.231 340.428 174.43 338.667 176.127C337.934 176.757 336.907 175.739 337.592 175.061Z" fill="#161616"/>
<path d="M331.675 172.637C331.822 172.346 332.507 170.94 332.409 170.601C331.871 170.165 331.333 169.68 330.795 169.244C330.453 169.438 330.062 169.583 329.719 169.777C328.301 170.601 327.079 171.813 325.954 173.025C323.705 175.545 321.749 178.357 319.696 181.023C319.109 181.75 317.838 181.023 318.424 180.296C321.554 176.272 324.781 170.407 329.671 168.177C330.746 167.693 332.262 167.305 333.24 168.177C334.707 169.438 333.631 171.716 333.044 173.073C332.751 173.897 331.333 173.51 331.675 172.637Z" fill="#161616"/>
<path d="M321.163 175.739C321.554 174.528 321.896 174.237 320.331 174.091C318.962 173.994 318.913 174.285 318.082 175.158C317.055 176.321 316.126 177.533 315.197 178.745C313.633 180.878 312.166 183.107 310.552 185.289C308.058 188.633 304.782 193.335 300.284 193.965C299.355 194.111 298.964 192.705 299.893 192.56C303.951 191.978 307.032 187.615 309.281 184.562C311.334 181.799 313.241 178.842 315.344 176.127C316.566 174.625 318.424 171.522 320.723 171.619C323.167 171.716 323.021 174.479 322.483 176.127C322.287 177 320.869 176.612 321.163 175.739Z" fill="#161616"/>
<path opacity="0.08" d="M216.378 136.33C217.552 135.991 219.459 140.935 223.126 147.334C229.14 157.901 235.203 164.833 241.608 171.134C256.815 186.064 264.443 193.578 277.743 197.504C282.486 198.91 304.391 204.727 324.634 192.172C334.218 186.21 339.743 178.405 342.53 173.655C343.019 174.14 343.606 174.867 343.704 175.836C343.899 177.242 342.97 178.309 341.895 179.763C340.428 181.847 340.33 182.38 339.792 183.447C339.792 183.447 339.352 184.222 338.716 185.095C337.054 187.373 331.186 192.657 331.578 193.19C331.724 193.384 332.849 192.851 335.147 191.833C337.396 190.815 337.787 190.524 338.521 190.669C339.841 190.912 341.161 192.366 341.112 193.82C341.063 195.129 339.939 196.001 338.912 196.777C337.738 197.698 336.614 198.037 336.32 198.134C332.018 199.588 330.942 200.558 327.177 201.673C316.175 204.92 303.756 205.211 303.756 205.211C285.517 205.648 271.533 201.091 268.599 200.073C262.536 198.037 250.654 193.917 238.626 183.738C232.66 178.696 223.566 170.844 218.774 157.756C215.107 147.819 214.716 136.767 216.378 136.33Z" fill="#353535"/>
<path opacity="0.06" d="M330.795 199.54C322.972 201.236 313.437 202.497 302.582 202.303C276.031 201.818 255.544 192.705 244.004 186.355C250.165 191.396 260.58 198.619 275.2 202.691C301.066 209.913 322.923 202.594 330.795 199.54Z" fill="#353535"/>
<path d="M250.801 64.2018C250.85 64.2987 252.561 67.1586 255.935 72.927C259.847 79.5679 261.46 82.3309 263.074 86.2572C264.198 89.0202 264.932 91.2985 265.372 92.8496C263.221 93.7221 261.069 94.5947 258.918 95.4672C258.331 100.218 256.913 103.853 255.788 106.131C253.979 109.815 251.388 115.196 245.52 117.813C244.64 118.201 242 119.316 238.381 119.316C233.883 119.316 230.558 117.571 229.091 116.699C228.798 118.541 228.211 120.867 227.086 123.436C226.157 125.618 225.082 127.363 224.104 128.72C219.507 126.975 214.911 125.23 210.364 123.436C211.635 121.546 213.298 118.541 214.324 114.566C214.667 113.208 215.449 109.815 215.156 105.016C214.813 99.1512 213.151 96.0973 211.342 90.5714C208.555 81.9431 206.892 76.9018 207.674 71.5213C208.701 64.5411 213.982 56.4945 222.099 53.5861C233.736 49.3689 245.814 57.5609 250.801 64.2018Z" fill="white"/>
<path d="M258.918 69.8247C261.949 68.6613 262.634 62.7476 262.047 58.8212C261.851 57.5124 261.118 53.6345 257.549 49.7567C252.708 44.473 247.574 44.5215 240.142 41.3707C236.034 39.6257 230.167 36.4749 223.908 30.3672C224.837 33.1302 225.766 35.8448 226.744 38.6077C225.326 38.7047 221.805 38.8501 218.138 36.8142C213.591 34.3421 211.831 30.2703 211.342 29.1069C210.559 30.3188 207.332 35.6024 209.044 41.6131C209.533 43.3097 210.315 44.6669 211.048 45.7334C208.506 45.0547 204.936 43.7459 201.905 40.7891C198.58 37.5413 198.14 34.5844 196.771 34.7299C194.13 34.9722 193.152 45.6364 192.614 51.5017C192.272 55.3796 191.734 58.0941 192.761 61.3418C193.69 64.3472 195.45 66.6254 195.255 66.7709C194.913 66.9648 189.974 58.9181 188.605 59.5483C187.774 59.9361 189.241 63.0384 189.778 68.9037C190.414 76.0778 188.947 77.435 190.267 82.5247C191.05 85.4816 192.174 87.566 193.397 89.9412C194.913 92.7042 196.771 96.1943 200.193 99.2966C203.372 102.205 207.283 105.744 212.124 105.065C218.432 104.144 221.365 96.7275 221.561 96.1943C221.023 96.1943 216.182 95.9519 213.786 92.2679C210.755 87.566 213.786 80.5858 217.258 79.4224C219.801 78.5499 221.805 81.119 224.201 79.9072C226.157 78.9377 226.402 76.5625 227.184 74.3327C228.211 71.3758 230.46 67.4495 235.985 63.4747C239.457 63.3292 244.591 63.6201 249.921 66.0922C254.615 68.1766 256.62 70.6972 258.918 69.8247Z" fill="#FFE422"/>
<path d="M259.358 78.1136C261.9 81.9914 264.003 86.1117 265.47 90.5228C265.812 91.5407 266.399 92.6071 265.665 93.4797C265.128 94.1098 263.807 94.3037 263.074 94.5946C261.851 95.0308 260.629 95.5155 259.407 95.9518C258.527 96.2911 258.135 94.8854 259.015 94.5461C259.847 94.2552 260.629 93.9644 261.46 93.6251C261.949 93.4312 263.563 93.0919 263.905 92.7041C264.932 91.6861 263.465 89.1655 263.025 88.0991C261.705 84.8514 260.042 81.7975 258.086 78.8407C257.549 78.0651 258.82 77.338 259.358 78.1136Z" fill="#161616"/>
<path d="M259.7 95.4188C257.011 104.726 253.637 115.099 244.053 119.51C243.222 119.898 242.44 118.638 243.32 118.25C252.512 113.984 255.691 103.999 258.282 95.031C258.575 94.11 259.993 94.4978 259.7 95.4188Z" fill="#161616"/>
<path d="M243.809 119.655C235.252 121.546 225.668 116.989 219.947 110.93C219.312 110.252 220.339 109.234 220.974 109.912C226.353 115.584 235.399 120.043 243.418 118.25C244.347 118.007 244.738 119.413 243.809 119.655Z" fill="#161616"/>
<path d="M229.776 117.038C229.189 121.304 227.624 125.133 224.935 128.526C224.348 129.253 223.321 128.235 223.908 127.508C226.304 124.454 227.771 120.867 228.309 117.038C228.406 116.117 229.873 116.117 229.776 117.038Z" fill="#161616"/>
<path d="M215.791 110.785C215.498 115.584 213.738 119.946 210.608 123.63C210.021 124.357 208.946 123.291 209.581 122.612C212.466 119.219 214.08 115.196 214.373 110.785C214.422 109.864 215.889 109.864 215.791 110.785Z" fill="#161616"/>
<path d="M223.028 81.7976C221.61 79.6648 218.921 79.374 216.818 80.7312C214.911 81.9431 213.982 84.2698 213.835 86.4026C213.591 89.8442 215.84 96.8244 220.73 94.7401C221.61 94.3523 222.343 95.6126 221.463 96.0004C215.107 98.7149 211.733 90.4259 212.466 85.4331C212.906 82.5732 214.569 79.7617 217.454 78.7923C220.045 77.8713 222.734 78.8407 224.25 81.0705C224.837 81.8461 223.566 82.5732 223.028 81.7976Z" fill="#161616"/>
<path d="M228.455 118.977C225.619 117.183 223.175 115.002 221.072 112.433C220.485 111.706 221.512 110.688 222.099 111.415C224.104 113.887 226.499 116.02 229.189 117.765C229.971 118.25 229.238 119.51 228.455 118.977Z" fill="#161616"/>
<path d="M255.202 105.016C251.828 105.307 248.454 104.095 246.107 101.623C244.591 99.9752 244.004 97.2122 247.085 97.3091C247.867 97.3576 248.112 98.521 247.28 98.7149C246.156 99.0057 245.227 99.442 244.298 100.218C243.564 100.799 242.538 99.7813 243.271 99.1996C244.396 98.2786 245.471 97.6969 246.889 97.3576C246.938 97.8423 247.036 98.3271 247.085 98.7633C245.422 98.7149 247.623 101.09 247.818 101.284C248.601 101.963 249.432 102.447 250.361 102.835C251.926 103.514 253.49 103.708 255.202 103.562C256.131 103.514 256.131 104.968 255.202 105.016Z" fill="#161616"/>
<path d="M248.747 83.1064C249.579 81.6522 249.872 80.0526 249.481 78.453C249.823 78.5984 250.214 78.7438 250.556 78.8892C249.236 79.9072 249.53 81.7976 249.725 83.2034C249.285 83.1549 248.845 83.1064 248.405 83.0095C248.992 82.1854 249.285 81.3129 249.285 80.295C249.285 79.374 250.752 79.374 250.752 80.295C250.752 81.5553 250.41 82.7186 249.676 83.7366C249.334 84.1728 248.454 84.2213 248.356 83.5427C248.014 81.3614 247.916 79.0831 249.872 77.5805C250.263 77.2896 250.85 77.5805 250.948 78.0167C251.437 80.0041 251.143 82.04 250.067 83.7851C249.53 84.6576 248.258 83.9305 248.747 83.1064Z" fill="#161616"/>
<path d="M251.681 72.8301C249.285 70.0186 245.814 72.1514 244.542 74.8175C244.151 75.6415 242.88 74.9144 243.271 74.0904C244.933 70.6003 249.725 68.3705 252.708 71.8121C253.344 72.5392 252.317 73.5572 251.681 72.8301Z" fill="#161616"/>
<path opacity="0.07" d="M228.113 72.0059C227.918 73.1208 227.673 74.8658 227.282 76.9017C226.206 82.67 225.277 85.9662 224.935 87.5174C223.664 93.4312 225.326 102.544 231.389 108.506C238.088 115.05 247.232 114.905 249.53 114.808C248.503 116.02 246.889 117.571 244.542 118.589C237.403 121.691 230.167 117.183 229.384 116.65C229.482 119.801 228.798 120.867 228.113 121.206C226.011 122.127 221.317 117.813 219.263 113.16C217.063 108.119 218.187 103.271 218.774 101.284C221.512 97.5514 221.659 96.2426 221.268 95.8064C220.681 95.1762 219.067 96.3396 217.258 95.7094C215.351 94.9823 214.569 92.7041 214.08 91.2983C213.444 89.4079 211.733 84.2697 214.911 81.2643C216.916 79.3738 220.192 79.0345 223.272 80.1009C223.908 80.004 224.739 79.7131 225.375 79.0345C226.206 78.162 226.206 77.1441 226.646 75.399C226.94 74.5265 227.331 73.3631 228.113 72.0059Z" fill="#353535"/>
<path opacity="0.1" d="M221.268 104.774C221.659 108.943 222.686 112.336 223.615 114.808C221.903 114.323 220.143 113.79 218.432 113.305C216.965 117.135 215.547 121.013 214.08 124.842C213.004 124.309 211.977 123.776 210.902 123.194C212.124 120.48 213.346 117.135 214.324 113.257C215.156 109.961 215.596 106.907 215.84 104.289C216.671 103.465 217.649 102.447 218.529 101.139C220.045 98.9573 220.925 96.9214 221.463 95.3218C221.17 97.7939 220.925 101.042 221.268 104.774Z" fill="#353535"/>
<path opacity="0.13" d="M193.592 43.9883C194.277 43.9883 193.837 50.6776 196.722 58.8212C197.944 62.2628 200.193 68.3705 205.963 73.5087C210.07 77.1442 214.324 78.9377 217.014 79.8102C216.28 80.2465 215.107 81.0705 214.227 82.4762C212.075 85.8694 213.444 89.6988 213.835 90.8137C214.373 92.3648 215.107 94.4007 217.16 95.4672C219.067 96.4366 221.023 96.0488 221.708 95.8549C221.561 96.2912 218.48 104.338 212.075 105.016C209.386 105.307 207.185 104.144 205.523 103.271C201.171 101.042 198.971 97.6969 196.282 93.5767C192.712 88.0992 190.218 84.2213 189.876 78.7438C189.632 74.4296 190.952 73.3148 190.023 69.1945C189.73 67.8857 188.947 65.2682 189.094 61.6326C189.143 60.8571 189.192 60.2269 189.241 59.7906C191.245 62.0689 193.25 64.3956 195.255 66.6739C194.57 65.3651 193.69 63.3292 193.103 60.7116C192.468 57.8517 192.565 55.6219 192.712 51.9379C192.761 49.8536 192.957 43.9883 193.592 43.9883Z" fill="#353535"/>
</svg>
